  0
SECTION
  2
HEADER
  9
$ACADVER
  1
AC1009
  9
$INSBASE
 10
0
 20
0
 30
0
  9
$EXTMIN
 10
0
 20
0
  9
$EXTMAX
 10
148.5
 20
105
  9
$LIMMIN
 10
0
 20
0
  9
$LIMMAX
 10
148.5
 20
105
  9
$LTSCALE
 40
0.5
  0
ENDSEC
  0
SECTION
  2
TABLES
  0
TABLE
  2
LTYPE
 70
     9
  0
LTYPE
  2
CONTINUOUS
 70
    64
  3
実線
 72
    65
 73
     0
 40
0.0
  0
LTYPE
  2
DASHED1
 70
    64
  3
--  --  --  --  --  --  --  --  
 72
    65
 73
     2
 40
2.5
 49
1.25
 49
-1.25
  0
LTYPE
  2
DASHED2
 70
    64
  3
----    ----    ----    ----    
 72
    65
 73
     2
 40
5.0
 49
2.5
 49
-2.5
  0
LTYPE
  2
DASHED3
 70
    64
  3
------  ------  ------  ------  
 72
    65
 73
     2
 40
5.0
 49
3.75
 49
-1.25
  0
LTYPE
  2
CENTER1
 70
    64
  3
----- - ----- - ----- - ----- - 
 72
    65
 73
     4
 40
10.0
 49
6.25
 49
-1.25
 49
1.25
 49
-1.25
  0
LTYPE
  2
CENTER2
 70
    64
  3
----------  --  ----------  --  
 72
    65
 73
     4
 40
20.0
 49
12.5
 49
-2.5
 49
2.5
 49
-2.5
  0
LTYPE
  2
PHANTOM1
 70
    64
  3
--- - - --- - - --- - - --- - - 
 72
    65
 73
     6
 40
10.0
 49
3.25
 49
-1.25
 49
1.25
 49
-1.25
 49
1.25
 49
-1.25
  0
LTYPE
  2
PHANTOM2
 70
    64
  3
--------  -  -  --------  -  -  
 72
    65
 73
     6
 40
20.0
 49
10.0
 49
-2.5
 49
1.25
 49
-2.5
 49
1.25
 49
-2.5
  0
LTYPE
  2
DOT
 70
    64
  3
-   -   -   -   -   -   -   -   
 72
    65
 73
     2
 40
2.5
 49
0.625
 49
-1.875
  0
LTYPE
  2
DUMMY
 70
    64
  3
ダミー
 72
    65
 73
     0
 40
0.0
  0
LTYPE
  2
RAND1
 70
    64
  3
ランダム線1
 72
    65
 73
     4
 40
10.0
 49
1.0
 49
-2.0
 49
3.0
 49
-4.0
  0
LTYPE
  2
RAND2
 70
    64
  3
ランダム線2
 72
    65
 73
     4
 40
14.0
 49
2.0
 49
-3.0
 49
4.0
 49
-5.0
  0
LTYPE
  2
RAND3
 70
    64
  3
ランダム線3
 72
    65
 73
     4
 40
18.0
 49
3.0
 49
-4.0
 49
5.0
 49
-6.0
  0
LTYPE
  2
RAND4
 70
    64
  3
ランダム線4
 72
    65
 73
     4
 40
22.0
 49
4.0
 49
-5.0
 49
6.0
 49
-7.0
  0
LTYPE
  2
RAND5
 70
    64
  3
ランダム線5
 72
    65
 73
     4
 40
26.0
 49
5.0
 49
-6.0
 49
7.0
 49
-8.0
  0
LTYPE
  2
LONG1
 70
    64
  3
----------  --  ----------  --  
 72
    65
 73
     4
 40
40.0
 49
32.5
 49
-2.5
 49
2.5
 49
-2.5
  0
LTYPE
  2
LONG2
 70
    64
  3
--------  -  -  --------  -  -  
 72
    65
 73
     6
 40
40.0
 49
30.0
 49
-2.5
 49
1.25
 49
-2.5
 49
1.25
 49
-2.5
  0
LTYPE
  2
LONG3
 70
    64
  3
+++++++++++++++..+++++++++++++++
 72
    65
 73
     2
 40
40.0
 49
37.5
 49
-2.5
  0
LTYPE
  2
LONG4
 70
    64
  3
+++++++++++++++..+++++++++++++++
 72
    65
 73
     2
 40
80.0
 49
75.0
 49
-5.0
  0
LTYPE
  2
LONG5
 70
    64
  3
----------  --  ----------  --  
 72
    65
 73
     4
 40
60.0
 49
37.5
 49
-7.5
 49
7.5
 49
-7.5
  0
LTYPE
  2
dashed
 70
   64
  3
-------   -------------   ------
 72
   65
 73
    2
 40
7.5
 49
6
 49
-1.5
  0
LTYPE
  2
dashed_spaced
 70
   64
  3
----        --------        ----
 72
   65
 73
    2
 40
12
 49
6
 49
-6
  0
LTYPE
  2
long_dashed_dotted
 70
   64
  3
------------- --- --------------
 72
   65
 73
    4
 40
15.25
 49
12
 49
-1.5
 49
0.25
 49
-1.5
  0
LTYPE
  2
long_dashed_double-dotted
 70
   64
  3
----------- --- --- ------------
 72
   65
 73
    6
 40
17
 49
12
 49
-1.5
 49
0.25
 49
-1.5
 49
0.25
 49
-1.5
  0
LTYPE
  2
long_dashed_triplicate-dotted
 70
   64
  3
--------- --- --- --- ----------
 72
   65
 73
    8
 40
18.75
 49
12
 49
-1.5
 49
0.25
 49
-1.5
 49
0.25
 49
-1.5
 49
0.25
 49
-1.5
  0
LTYPE
  2
dotted
 70
   64
  3
   -       -       -       -    
 72
   65
 73
    2
 40
1.75
 49
0.25
 49
-1.5
  0
LTYPE
  2
chain
 70
   64
  3
-------------- -- --------------
 72
   65
 73
    4
 40
18.5
 49
12
 49
-1.5
 49
3.5
 49
-1.5
  0
LTYPE
  2
chain_double_dash
 70
   64
  3
------------ -- -- -------------
 72
   65
 73
    6
 40
23.5
 49
12
 49
-1.5
 49
3.5
 49
-1.5
 49
3.5
 49
-1.5
  0
LTYPE
  2
dashed_dotted
 70
   64
  3
-----------     -     ----------
 72
   65
 73
    4
 40
9.25
 49
6
 49
-1.5
 49
0.25
 49
-1.5
  0
LTYPE
  2
double-dashed_dotted
 70
   64
  3
------   -----------   -   -----
 72
   65
 73
    6
 40
16.75
 49
6
 49
-1.5
 49
6
 49
-1.5
 49
0.25
 49
-1.5
  0
LTYPE
  2
dashed_double-dotted
 70
   64
  3
---------    -    -    ---------
 72
   65
 73
    6
 40
11
 49
6
 49
-1.5
 49
0.25
 49
-1.5
 49
0.25
 49
-1.5
  0
LTYPE
  2
double-dashed_double-dotted
 70
   64
  3
-----   ---------   -   -   ----
 72
   65
 73
    8
 40
18.5
 49
6
 49
-1.5
 49
6
 49
-1.5
 49
0.25
 49
-1.5
 49
0.25
 49
-1.5
  0
LTYPE
  2
dashed_triplicate-dotted
 70
   64
  3
-------    -    -    -    ------
 72
   65
 73
    8
 40
12.75
 49
6
 49
-1.5
 49
0.25
 49
-1.5
 49
0.25
 49
-1.5
 49
0.25
 49
-1.5
  0
LTYPE
  2
double-dashed_triplicate-dotted
 70
   64
  3
-----  ---------  -  -  -  -----
 72
   65
 73
   10
 40
20.25
 49
6
 49
-1.5
 49
6
 49
-1.5
 49
0.25
 49
-1.5
 49
0.25
 49
-1.5
 49
0.25
 49
-1.5
  0
LTYPE
  2
undefined
 70
   64
  3
--------------------------------
 72
   65
 73
    0
 40
0
  0
ENDTAB
  0
TABLE
  2
STYLE
  5
3
100
AcDbSymbolTable
 70
     1
  0
STYLE
  5
10
100
AcDbSymbolTableRecord
100
AcDbTextStyleTableRecord
  2
STANDARD
 70
     0
 40
0.0
 41
1.0
 50
0.0
 71
     0
 42
0.2
  3
txt
  4
bigfont.shx
  0
STYLE
  5
26
100
AcDbSymbolTableRecord
100
AcDbTextStyleTableRecord
  2
TATEGAKI
 70
    68
 40
0.0
 41
1.0
 50
0.0
 71
     0
 42
1.0
  3
txt
  4
bigfont.shx
  0
ENDTAB
  0
TABLE
  2
LAYER
 70
    7
  0
LAYER
  2
_0-0_
 70
   64
 62
    7
  6
CONTINUOUS
  0
LAYER
  2
_0-1_
 70
   64
 62
    7
  6
CONTINUOUS
  0
LAYER
  2
_0-2_
 70
   64
 62
    7
  6
CONTINUOUS
  0
LAYER
  2
_0-3_
 70
   64
 62
    7
  6
CONTINUOUS
  0
LAYER
  2
_0-4_
 70
   64
 62
    7
  6
CONTINUOUS
  0
LAYER
  2
_0-5_
 70
   64
 62
    7
  6
CONTINUOUS
  0
LAYER
  2
ADD_LINE
 70
   64
 62
    7
  6
CONTINUOUS
  0
ENDTAB
  0
ENDSEC
  0
SECTION
  2
BLOCKS
  0
ENDSEC
  0
SECTION
  2
ENTITIES
  0
CIRCLE
  8
_0-4_
  6
CONTINUOUS
 62
    6
 10
111.76872611464957
 20
53.451401273885317
 40
2.1000000000000001
  0
LINE
  8
_0-2_
  6
CONTINUOUS
 62
    1
 10
57.778726114649686
 20
67.521401273885346
 11
67.938726114649683
 21
67.521401273885346
  0
LINE
  8
_0-1_
  6
CONTINUOUS
 62
    7
 10
76.828726114649655
 20
45.931401273885299
 11
76.828726114649655
 21
57.361401273885328
  0
CIRCLE
  8
_0-2_
  6
CONTINUOUS
 62
    7
 10
104.76872611464957
 20
44.661401273885325
 40
0.5
  0
TEXT
  8
_0-2_
 62
    4
 10
83.198726114649631
 20
86.571401273885357
 40
1
 41
1
 50
0
  1
150Ω
  0
CIRCLE
  8
_0-1_
  6
CONTINUOUS
 62
    7
 10
99.688726114649583
 20
84.031401273885351
 40
0.4
  0
LINE
  8
_0-0_
  6
CENTER1
 62
    4
 10
-19.269108280254784
 20
100.54140127388536
 11
168.32643312101911
 21
100.54140127388536
  0
LINE
  8
_0-0_
  6
CENTER1
 62
    4
 10
-19.269108280254784
 20
99.271401273885346
 11
168.32643312101911
 21
99.271401273885346
  0
LINE
  8
_0-0_
  6
CENTER1
 62
    4
 10
-19.269108280254784
 20
98.001401273885349
 11
168.32643312101911
 21
98.001401273885349
  0
LINE
  8
_0-0_
  6
CENTER1
 62
    4
 10
-19.269108280254784
 20
96.731401273885353
 11
168.32643312101911
 21
96.731401273885353
  0
LINE
  8
_0-0_
  6
CENTER1
 62
    4
 10
-19.269108280254784
 20
95.461401273885343
 11
168.32643312101911
 21
95.461401273885343
  0
LINE
  8
_0-0_
  6
CENTER1
 62
    4
 10
-19.269108280254784
 20
94.191401273885347
 11
168.32643312101911
 21
94.191401273885347
  0
LINE
  8
_0-0_
  6
CENTER1
 62
    4
 10
-19.269108280254784
 20
92.921401273885351
 11
168.32643312101911
 21
92.921401273885351
  0
LINE
  8
_0-0_
  6
CENTER1
 62
    4
 10
-19.269108280254784
 20
91.651401273885341
 11
168.32643312101911
 21
91.651401273885341
  0
LINE
  8
_0-0_
  6
CENTER1
 62
    4
 10
-19.269108280254784
 20
90.381401273885359
 11
168.32643312101911
 21
90.381401273885359
  0
LINE
  8
_0-0_
  6
CENTER1
 62
    4
 10
-19.269108280254784
 20
89.111401273885349
 11
168.32643312101911
 21
89.111401273885349
  0
LINE
  8
_0-0_
  6
CENTER1
 62
    4
 10
-19.269108280254784
 20
87.841401273885353
 11
168.32643312101911
 21
87.841401273885353
  0
LINE
  8
_0-0_
  6
CENTER1
 62
    4
 10
-19.269108280254784
 20
86.571401273885357
 11
168.32643312101911
 21
86.571401273885357
  0
LINE
  8
_0-0_
  6
CENTER1
 62
    4
 10
-19.269108280254784
 20
85.301401273885347
 11
168.32643312101911
 21
85.301401273885347
  0
LINE
  8
_0-0_
  6
CENTER1
 62
    4
 10
-19.269108280254784
 20
84.031401273885351
 11
168.32643312101911
 21
84.031401273885351
  0
LINE
  8
_0-0_
  6
CENTER1
 62
    4
 10
-19.269108280254784
 20
82.761401273885355
 11
168.32643312101911
 21
82.761401273885355
  0
LINE
  8
_0-0_
  6
CENTER1
 62
    4
 10
-19.269108280254784
 20
81.491401273885344
 11
168.32643312101911
 21
81.491401273885344
  0
LINE
  8
_0-0_
  6
CENTER1
 62
    4
 10
-19.269108280254784
 20
80.221401273885348
 11
168.32643312101911
 21
80.221401273885348
  0
LINE
  8
_0-0_
  6
CENTER1
 62
    4
 10
-19.269108280254784
 20
78.951401273885352
 11
168.32643312101911
 21
78.951401273885352
  0
LINE
  8
_0-0_
  6
CENTER1
 62
    4
 10
-19.269108280254784
 20
77.681401273885356
 11
168.32643312101911
 21
77.681401273885356
  0
LINE
  8
_0-0_
  6
CENTER1
 62
    4
 10
-19.269108280254784
 20
76.41140127388536
 11
168.32643312101911
 21
76.41140127388536
  0
LINE
  8
_0-0_
  6
CENTER1
 62
    4
 10
-19.269108280254784
 20
75.14140127388535
 11
168.32643312101911
 21
75.14140127388535
  0
LINE
  8
_0-0_
  6
CENTER1
 62
    4
 10
-19.269108280254784
 20
73.871401273885354
 11
168.32643312101911
 21
73.871401273885354
  0
LINE
  8
_0-0_
  6
CENTER1
 62
    4
 10
-19.269108280254784
 20
72.601401273885358
 11
168.32643312101911
 21
72.601401273885358
  0
LINE
  8
_0-0_
  6
CENTER1
 62
    4
 10
-19.269108280254784
 20
71.331401273885348
 11
168.32643312101911
 21
71.331401273885348
  0
LINE
  8
_0-0_
  6
CENTER1
 62
    4
 10
-19.269108280254784
 20
70.061401273885352
 11
168.32643312101911
 21
70.061401273885352
  0
LINE
  8
_0-0_
  6
CENTER1
 62
    4
 10
-19.269108280254784
 20
68.791401273885356
 11
168.32643312101911
 21
68.791401273885356
  0
LINE
  8
_0-0_
  6
CENTER1
 62
    4
 10
-19.269108280254784
 20
67.521401273885346
 11
168.32643312101911
 21
67.521401273885346
  0
LINE
  8
_0-0_
  6
CENTER1
 62
    4
 10
-19.269108280254784
 20
66.251401273885349
 11
168.32643312101911
 21
66.251401273885349
  0
LINE
  8
_0-0_
  6
CENTER1
 62
    4
 10
-19.269108280254784
 20
64.981401273885353
 11
168.32643312101911
 21
64.981401273885353
  0
LINE
  8
_0-0_
  6
CENTER1
 62
    4
 10
-19.269108280254784
 20
63.711401273885343
 11
168.32643312101911
 21
63.711401273885343
  0
LINE
  8
_0-0_
  6
CENTER1
 62
    4
 10
-19.269108280254784
 20
62.44140127388534
 11
168.32643312101911
 21
62.44140127388534
  0
LINE
  8
_0-0_
  6
CENTER1
 62
    4
 10
-19.269108280254784
 20
61.171401273885337
 11
168.32643312101911
 21
61.171401273885337
  0
LINE
  8
_0-0_
  6
CENTER1
 62
    4
 10
-19.269108280254784
 20
59.901401273885334
 11
168.32643312101911
 21
59.901401273885334
  0
LINE
  8
_0-0_
  6
CENTER1
 62
    4
 10
-19.269108280254784
 20
58.631401273885331
 11
168.32643312101911
 21
58.631401273885331
  0
LINE
  8
_0-0_
  6
CENTER1
 62
    4
 10
-19.269108280254784
 20
57.361401273885328
 11
168.32643312101911
 21
57.361401273885328
  0
LINE
  8
_0-0_
  6
CENTER1
 62
    4
 10
-19.269108280254784
 20
56.091401273885324
 11
168.32643312101911
 21
56.091401273885324
  0
LINE
  8
_0-0_
  6
CENTER1
 62
    4
 10
-19.269108280254784
 20
54.821401273885321
 11
168.32643312101911
 21
54.821401273885321
  0
LINE
  8
_0-0_
  6
CENTER1
 62
    4
 10
-19.269108280254784
 20
53.551401273885318
 11
168.32643312101911
 21
53.551401273885318
  0
LINE
  8
_0-0_
  6
CENTER1
 62
    4
 10
-19.269108280254784
 20
52.281401273885315
 11
168.32643312101911
 21
52.281401273885315
  0
LINE
  8
_0-0_
  6
CENTER1
 62
    4
 10
-19.269108280254784
 20
51.011401273885312
 11
168.32643312101911
 21
51.011401273885312
  0
LINE
  8
_0-0_
  6
CENTER1
 62
    4
 10
-19.269108280254784
 20
49.741401273885309
 11
168.32643312101911
 21
49.741401273885309
  0
LINE
  8
_0-0_
  6
CENTER1
 62
    4
 10
-19.269108280254784
 20
48.471401273885306
 11
168.32643312101911
 21
48.471401273885306
  0
LINE
  8
_0-0_
  6
CENTER1
 62
    4
 10
-19.269108280254784
 20
47.201401273885303
 11
168.32643312101911
 21
47.201401273885303
  0
LINE
  8
_0-0_
  6
CENTER1
 62
    4
 10
-19.269108280254784
 20
45.931401273885299
 11
168.32643312101911
 21
45.931401273885299
  0
LINE
  8
_0-0_
  6
CENTER1
 62
    4
 10
-19.269108280254784
 20
44.661401273885296
 11
168.32643312101911
 21
44.661401273885296
  0
LINE
  8
_0-0_
  6
CENTER1
 62
    4
 10
-19.269108280254784
 20
43.391401273885293
 11
168.32643312101911
 21
43.391401273885293
  0
LINE
  8
_0-0_
  6
CENTER1
 62
    4
 10
-19.269108280254784
 20
42.12140127388529
 11
168.32643312101911
 21
42.12140127388529
  0
LINE
  8
_0-0_
  6
CENTER1
 62
    4
 10
-19.269108280254784
 20
40.851401273885287
 11
168.32643312101911
 21
40.851401273885287
  0
LINE
  8
_0-0_
  6
CENTER1
 62
    4
 10
-19.269108280254784
 20
39.581401273885284
 11
168.32643312101911
 21
39.581401273885284
  0
LINE
  8
_0-0_
  6
CENTER1
 62
    4
 10
-19.269108280254784
 20
38.311401273885281
 11
168.32643312101911
 21
38.311401273885281
  0
LINE
  8
_0-0_
  6
CENTER1
 62
    4
 10
-19.269108280254784
 20
37.041401273885278
 11
168.32643312101911
 21
37.041401273885278
  0
LINE
  8
_0-0_
  6
CENTER1
 62
    4
 10
-19.269108280254784
 20
35.771401273885282
 11
168.32643312101911
 21
35.771401273885282
  0
LINE
  8
_0-0_
  6
CENTER1
 62
    4
 10
-19.269108280254784
 20
34.501401273885286
 11
168.32643312101911
 21
34.501401273885286
  0
LINE
  8
_0-0_
  6
CENTER1
 62
    4
 10
-19.269108280254784
 20
33.23140127388529
 11
168.32643312101911
 21
33.23140127388529
  0
LINE
  8
_0-0_
  6
CENTER1
 62
    4
 10
-19.269108280254784
 20
31.961401273885294
 11
168.32643312101911
 21
31.961401273885294
  0
LINE
  8
_0-0_
  6
CENTER1
 62
    4
 10
-19.269108280254784
 20
30.691401273885297
 11
168.32643312101911
 21
30.691401273885297
  0
LINE
  8
_0-0_
  6
CENTER1
 62
    4
 10
-19.269108280254784
 20
29.421401273885301
 11
168.32643312101911
 21
29.421401273885301
  0
LINE
  8
_0-0_
  6
CENTER1
 62
    4
 10
-19.269108280254784
 20
28.151401273885305
 11
168.32643312101911
 21
28.151401273885305
  0
LINE
  8
_0-0_
  6
CENTER1
 62
    4
 10
-19.269108280254784
 20
26.881401273885309
 11
168.32643312101911
 21
26.881401273885309
  0
LINE
  8
_0-0_
  6
CENTER1
 62
    4
 10
-19.269108280254784
 20
25.611401273885313
 11
168.32643312101911
 21
25.611401273885313
  0
LINE
  8
_0-0_
  6
CENTER1
 62
    4
 10
-19.269108280254784
 20
24.341401273885317
 11
168.32643312101911
 21
24.341401273885317
  0
LINE
  8
_0-0_
  6
CENTER1
 62
    4
 10
-19.269108280254784
 20
23.071401273885321
 11
168.32643312101911
 21
23.071401273885321
  0
LINE
  8
_0-0_
  6
CENTER1
 62
    4
 10
-19.269108280254784
 20
21.801401273885325
 11
168.32643312101911
 21
21.801401273885325
  0
LINE
  8
_0-0_
  6
CENTER1
 62
    4
 10
-19.269108280254784
 20
20.531401273885329
 11
168.32643312101911
 21
20.531401273885329
  0
LINE
  8
_0-0_
  6
CENTER1
 62
    4
 10
-19.269108280254784
 20
19.261401273885333
 11
168.32643312101911
 21
19.261401273885333
  0
LINE
  8
_0-0_
  6
CENTER1
 62
    4
 10
-19.269108280254784
 20
17.991401273885337
 11
168.32643312101911
 21
17.991401273885337
  0
LINE
  8
_0-0_
  6
CENTER1
 62
    4
 10
-19.269108280254784
 20
16.721401273885341
 11
168.32643312101911
 21
16.721401273885341
  0
LINE
  8
_0-0_
  6
CENTER1
 62
    4
 10
-19.269108280254784
 20
15.451401273885345
 11
168.32643312101911
 21
15.451401273885345
  0
LINE
  8
_0-0_
  6
CENTER1
 62
    4
 10
-19.269108280254784
 20
14.181401273885349
 11
168.32643312101911
 21
14.181401273885349
  0
LINE
  8
_0-0_
  6
CENTER1
 62
    4
 10
-19.269108280254784
 20
12.911401273885353
 11
168.32643312101911
 21
12.911401273885353
  0
LINE
  8
_0-0_
  6
CENTER1
 62
    4
 10
-19.269108280254784
 20
11.641401273885357
 11
168.32643312101911
 21
11.641401273885357
  0
LINE
  8
_0-0_
  6
CENTER1
 62
    4
 10
-19.269108280254784
 20
10.371401273885361
 11
168.32643312101911
 21
10.371401273885361
  0
LINE
  8
_0-0_
  6
CENTER1
 62
    4
 10
-19.269108280254784
 20
9.1014012738853651
 11
168.32643312101911
 21
9.1014012738853651
  0
LINE
  8
_0-0_
  6
CENTER1
 62
    4
 10
-19.269108280254784
 20
7.8314012738853691
 11
168.32643312101911
 21
7.8314012738853691
  0
LINE
  8
_0-0_
  6
CENTER1
 62
    4
 10
-19.269108280254784
 20
6.5614012738853731
 11
168.32643312101911
 21
6.5614012738853731
  0
LINE
  8
_0-0_
  6
CENTER1
 62
    4
 10
-19.269108280254784
 20
5.2914012738853771
 11
168.32643312101911
 21
5.2914012738853771
  0
LINE
  8
_0-0_
  6
CENTER1
 62
    4
 10
-19.269108280254784
 20
4.021401273885381
 11
168.32643312101911
 21
4.021401273885381
  0
LINE
  8
_0-0_
  6
CENTER1
 62
    4
 10
-19.269108280254784
 20
2.751401273885385
 11
168.32643312101911
 21
2.751401273885385
  0
LINE
  8
_0-0_
  6
CENTER1
 62
    4
 10
-19.269108280254784
 20
1.481401273885389
 11
168.32643312101911
 21
1.481401273885389
  0
LINE
  8
_0-0_
  6
CENTER1
 62
    4
 10
-17.151273885350321
 20
102.65923566878982
 11
-17.151273885350321
 21
1.1146496815286611
  0
LINE
  8
_0-0_
  6
CENTER1
 62
    4
 10
-15.881273885350325
 20
102.65923566878982
 11
-15.881273885350325
 21
1.1146496815286682
  0
LINE
  8
_0-0_
  6
CENTER1
 62
    4
 10
-14.611273885350315
 20
102.65923566878982
 11
-14.611273885350315
 21
1.1146496815286682
  0
LINE
  8
_0-0_
  6
CENTER1
 62
    4
 10
-13.341273885350319
 20
102.65923566878982
 11
-13.341273885350319
 21
1.1146496815286682
  0
LINE
  8
_0-0_
  6
CENTER1
 62
    4
 10
-12.071273885350323
 20
102.65923566878982
 11
-12.071273885350323
 21
1.1146496815286682
  0
LINE
  8
_0-0_
  6
CENTER1
 62
    4
 10
-10.801273885350327
 20
102.65923566878982
 11
-10.801273885350327
 21
1.1146496815286682
  0
LINE
  8
_0-0_
  6
CENTER1
 62
    4
 10
-9.5312738853503163
 20
102.65923566878982
 11
-9.5312738853503163
 21
1.1146496815286682
  0
LINE
  8
_0-0_
  6
CENTER1
 62
    4
 10
-8.2612738853503203
 20
102.65923566878982
 11
-8.2612738853503203
 21
1.1146496815286682
  0
LINE
  8
_0-0_
  6
CENTER1
 62
    4
 10
-6.9912738853503242
 20
102.65923566878982
 11
-6.9912738853503242
 21
1.1146496815286682
  0
LINE
  8
_0-0_
  6
CENTER1
 62
    4
 10
-5.7212738853503282
 20
102.65923566878982
 11
-5.7212738853503282
 21
1.1146496815286682
  0
LINE
  8
_0-0_
  6
CENTER1
 62
    4
 10
-4.451273885350318
 20
102.65923566878982
 11
-4.451273885350318
 21
1.1146496815286682
  0
LINE
  8
_0-0_
  6
CENTER1
 62
    4
 10
-3.181273885350322
 20
102.65923566878982
 11
-3.181273885350322
 21
1.1146496815286682
  0
LINE
  8
_0-0_
  6
CENTER1
 62
    4
 10
-1.9112738853503259
 20
102.65923566878982
 11
-1.9112738853503259
 21
1.1146496815286682
  0
LINE
  8
_0-0_
  6
CENTER1
 62
    4
 10
-0.6412738853503299
 20
102.65923566878982
 11
-0.6412738853503299
 21
1.1146496815286682
  0
LINE
  8
_0-0_
  6
CENTER1
 62
    4
 10
0.6287261146496803
 20
102.65923566878982
 11
0.6287261146496803
 21
1.1146496815286682
  0
LINE
  8
_0-0_
  6
CENTER1
 62
    4
 10
1.8987261146496763
 20
102.65923566878982
 11
1.8987261146496763
 21
1.1146496815286682
  0
LINE
  8
_0-0_
  6
CENTER1
 62
    4
 10
3.1687261146496724
 20
102.65923566878982
 11
3.1687261146496724
 21
1.1146496815286682
  0
LINE
  8
_0-0_
  6
CENTER1
 62
    4
 10
4.4387261146496826
 20
102.65923566878982
 11
4.4387261146496826
 21
1.1146496815286682
  0
LINE
  8
_0-0_
  6
CENTER1
 62
    4
 10
5.7087261146496786
 20
102.65923566878982
 11
5.7087261146496786
 21
1.1146496815286682
  0
LINE
  8
_0-0_
  6
CENTER1
 62
    4
 10
6.9787261146496746
 20
102.65923566878982
 11
6.9787261146496746
 21
1.1146496815286682
  0
LINE
  8
_0-0_
  6
CENTER1
 62
    4
 10
8.2487261146496706
 20
102.65923566878982
 11
8.2487261146496706
 21
1.1146496815286682
  0
LINE
  8
_0-0_
  6
CENTER1
 62
    4
 10
9.5187261146496667
 20
102.65923566878982
 11
9.5187261146496667
 21
1.1146496815286682
  0
LINE
  8
_0-0_
  6
CENTER1
 62
    4
 10
10.788726114649677
 20
102.65923566878982
 11
10.788726114649677
 21
1.1146496815286682
  0
LINE
  8
_0-0_
  6
CENTER1
 62
    4
 10
12.058726114649673
 20
102.65923566878982
 11
12.058726114649673
 21
1.1146496815286682
  0
LINE
  8
_0-0_
  6
CENTER1
 62
    4
 10
13.328726114649669
 20
102.65923566878982
 11
13.328726114649669
 21
1.1146496815286682
  0
LINE
  8
_0-0_
  6
CENTER1
 62
    4
 10
14.598726114649672
 20
102.65923566878982
 11
14.598726114649672
 21
1.1146496815286682
  0
LINE
  8
_0-0_
  6
CENTER1
 62
    4
 10
15.868726114649675
 20
102.65923566878982
 11
15.868726114649675
 21
1.1146496815286682
  0
LINE
  8
_0-0_
  6
CENTER1
 62
    4
 10
17.138726114649678
 20
102.65923566878982
 11
17.138726114649678
 21
1.1146496815286682
  0
LINE
  8
_0-0_
  6
CENTER1
 62
    4
 10
18.408726114649681
 20
102.65923566878982
 11
18.408726114649681
 21
1.1146496815286682
  0
LINE
  8
_0-0_
  6
CENTER1
 62
    4
 10
19.678726114649685
 20
102.65923566878982
 11
19.678726114649685
 21
1.1146496815286682
  0
LINE
  8
_0-0_
  6
CENTER1
 62
    4
 10
20.948726114649688
 20
102.65923566878982
 11
20.948726114649688
 21
1.1146496815286682
  0
LINE
  8
_0-0_
  6
CENTER1
 62
    4
 10
22.218726114649691
 20
102.65923566878982
 11
22.218726114649691
 21
1.1146496815286682
  0
LINE
  8
_0-0_
  6
CENTER1
 62
    4
 10
23.488726114649694
 20
102.65923566878982
 11
23.488726114649694
 21
1.1146496815286682
  0
LINE
  8
_0-0_
  6
CENTER1
 62
    4
 10
24.758726114649697
 20
102.65923566878982
 11
24.758726114649697
 21
1.1146496815286682
  0
LINE
  8
_0-0_
  6
CENTER1
 62
    4
 10
26.0287261146497
 20
102.65923566878982
 11
26.0287261146497
 21
1.1146496815286682
  0
LINE
  8
_0-0_
  6
CENTER1
 62
    4
 10
27.298726114649703
 20
102.65923566878982
 11
27.298726114649703
 21
1.1146496815286682
  0
LINE
  8
_0-0_
  6
CENTER1
 62
    4
 10
28.568726114649706
 20
102.65923566878982
 11
28.568726114649706
 21
1.1146496815286682
  0
LINE
  8
_0-0_
  6
CENTER1
 62
    4
 10
29.83872611464971
 20
102.65923566878982
 11
29.83872611464971
 21
1.1146496815286682
  0
LINE
  8
_0-0_
  6
CENTER1
 62
    4
 10
31.108726114649713
 20
102.65923566878982
 11
31.108726114649713
 21
1.1146496815286682
  0
LINE
  8
_0-0_
  6
CENTER1
 62
    4
 10
32.378726114649716
 20
102.65923566878982
 11
32.378726114649716
 21
1.1146496815286682
  0
LINE
  8
_0-0_
  6
CENTER1
 62
    4
 10
33.648726114649719
 20
102.65923566878982
 11
33.648726114649719
 21
1.1146496815286682
  0
LINE
  8
_0-0_
  6
CENTER1
 62
    4
 10
34.918726114649722
 20
102.65923566878982
 11
34.918726114649722
 21
1.1146496815286682
  0
LINE
  8
_0-0_
  6
CENTER1
 62
    4
 10
36.188726114649725
 20
102.65923566878982
 11
36.188726114649725
 21
1.1146496815286682
  0
LINE
  8
_0-0_
  6
CENTER1
 62
    4
 10
37.458726114649728
 20
102.65923566878982
 11
37.458726114649728
 21
1.1146496815286682
  0
LINE
  8
_0-0_
  6
CENTER1
 62
    4
 10
38.728726114649731
 20
102.65923566878982
 11
38.728726114649731
 21
1.1146496815286682
  0
LINE
  8
_0-0_
  6
CENTER1
 62
    4
 10
39.998726114649735
 20
102.65923566878982
 11
39.998726114649735
 21
1.1146496815286682
  0
LINE
  8
_0-0_
  6
CENTER1
 62
    4
 10
41.268726114649738
 20
102.65923566878982
 11
41.268726114649738
 21
1.1146496815286682
  0
LINE
  8
_0-0_
  6
CENTER1
 62
    4
 10
42.538726114649741
 20
102.65923566878982
 11
42.538726114649741
 21
1.1146496815286682
  0
LINE
  8
_0-0_
  6
CENTER1
 62
    4
 10
43.808726114649744
 20
102.65923566878982
 11
43.808726114649744
 21
1.1146496815286682
  0
LINE
  8
_0-0_
  6
CENTER1
 62
    4
 10
45.078726114649747
 20
102.65923566878982
 11
45.078726114649747
 21
1.1146496815286682
  0
LINE
  8
_0-0_
  6
CENTER1
 62
    4
 10
46.34872611464975
 20
102.65923566878982
 11
46.34872611464975
 21
1.1146496815286682
  0
LINE
  8
_0-0_
  6
CENTER1
 62
    4
 10
47.618726114649746
 20
102.65923566878982
 11
47.618726114649746
 21
1.1146496815286682
  0
LINE
  8
_0-0_
  6
CENTER1
 62
    4
 10
48.888726114649742
 20
102.65923566878982
 11
48.888726114649742
 21
1.1146496815286682
  0
LINE
  8
_0-0_
  6
CENTER1
 62
    4
 10
50.158726114649738
 20
102.65923566878982
 11
50.158726114649738
 21
1.1146496815286682
  0
LINE
  8
_0-0_
  6
CENTER1
 62
    4
 10
51.428726114649734
 20
102.65923566878982
 11
51.428726114649734
 21
1.1146496815286682
  0
LINE
  8
_0-0_
  6
CENTER1
 62
    4
 10
52.69872611464973
 20
102.65923566878982
 11
52.69872611464973
 21
1.1146496815286682
  0
LINE
  8
_0-0_
  6
CENTER1
 62
    4
 10
53.968726114649726
 20
102.65923566878982
 11
53.968726114649726
 21
1.1146496815286682
  0
LINE
  8
_0-0_
  6
CENTER1
 62
    4
 10
55.238726114649722
 20
102.65923566878982
 11
55.238726114649722
 21
1.1146496815286682
  0
LINE
  8
_0-0_
  6
CENTER1
 62
    4
 10
56.508726114649718
 20
102.65923566878982
 11
56.508726114649718
 21
1.1146496815286682
  0
LINE
  8
_0-0_
  6
CENTER1
 62
    4
 10
57.778726114649714
 20
102.65923566878982
 11
57.778726114649714
 21
1.1146496815286682
  0
LINE
  8
_0-0_
  6
CENTER1
 62
    4
 10
59.04872611464971
 20
102.65923566878982
 11
59.04872611464971
 21
1.1146496815286682
  0
LINE
  8
_0-0_
  6
CENTER1
 62
    4
 10
60.318726114649706
 20
102.65923566878982
 11
60.318726114649706
 21
1.1146496815286682
  0
LINE
  8
_0-0_
  6
CENTER1
 62
    4
 10
61.588726114649702
 20
102.65923566878982
 11
61.588726114649702
 21
1.1146496815286682
  0
LINE
  8
_0-0_
  6
CENTER1
 62
    4
 10
62.858726114649699
 20
102.65923566878982
 11
62.858726114649699
 21
1.1146496815286682
  0
LINE
  8
_0-0_
  6
CENTER1
 62
    4
 10
64.128726114649695
 20
102.65923566878982
 11
64.128726114649695
 21
1.1146496815286682
  0
LINE
  8
_0-0_
  6
CENTER1
 62
    4
 10
65.398726114649691
 20
102.65923566878982
 11
65.398726114649691
 21
1.1146496815286682
  0
LINE
  8
_0-0_
  6
CENTER1
 62
    4
 10
66.668726114649687
 20
102.65923566878982
 11
66.668726114649687
 21
1.1146496815286682
  0
LINE
  8
_0-0_
  6
CENTER1
 62
    4
 10
67.938726114649683
 20
102.65923566878982
 11
67.938726114649683
 21
1.1146496815286682
  0
LINE
  8
_0-0_
  6
CENTER1
 62
    4
 10
69.208726114649679
 20
102.65923566878982
 11
69.208726114649679
 21
1.1146496815286682
  0
LINE
  8
_0-0_
  6
CENTER1
 62
    4
 10
70.478726114649675
 20
102.65923566878982
 11
70.478726114649675
 21
1.1146496815286682
  0
LINE
  8
_0-0_
  6
CENTER1
 62
    4
 10
71.748726114649671
 20
102.65923566878982
 11
71.748726114649671
 21
1.1146496815286682
  0
LINE
  8
_0-0_
  6
CENTER1
 62
    4
 10
73.018726114649667
 20
102.65923566878982
 11
73.018726114649667
 21
1.1146496815286682
  0
LINE
  8
_0-0_
  6
CENTER1
 62
    4
 10
74.288726114649663
 20
102.65923566878982
 11
74.288726114649663
 21
1.1146496815286682
  0
LINE
  8
_0-0_
  6
CENTER1
 62
    4
 10
75.558726114649659
 20
102.65923566878982
 11
75.558726114649659
 21
1.1146496815286682
  0
LINE
  8
_0-0_
  6
CENTER1
 62
    4
 10
76.828726114649655
 20
102.65923566878982
 11
76.828726114649655
 21
1.1146496815286682
  0
LINE
  8
_0-0_
  6
CENTER1
 62
    4
 10
78.098726114649651
 20
102.65923566878982
 11
78.098726114649651
 21
1.1146496815286682
  0
LINE
  8
_0-0_
  6
CENTER1
 62
    4
 10
79.368726114649647
 20
102.65923566878982
 11
79.368726114649647
 21
1.1146496815286682
  0
LINE
  8
_0-0_
  6
CENTER1
 62
    4
 10
80.638726114649643
 20
102.65923566878982
 11
80.638726114649643
 21
1.1146496815286682
  0
LINE
  8
_0-0_
  6
CENTER1
 62
    4
 10
81.908726114649639
 20
102.65923566878982
 11
81.908726114649639
 21
1.1146496815286682
  0
LINE
  8
_0-0_
  6
CENTER1
 62
    4
 10
83.178726114649635
 20
102.65923566878982
 11
83.178726114649635
 21
1.1146496815286682
  0
LINE
  8
_0-0_
  6
CENTER1
 62
    4
 10
84.448726114649631
 20
102.65923566878982
 11
84.448726114649631
 21
1.1146496815286682
  0
LINE
  8
_0-0_
  6
CENTER1
 62
    4
 10
85.718726114649627
 20
102.65923566878982
 11
85.718726114649627
 21
1.1146496815286682
  0
LINE
  8
_0-0_
  6
CENTER1
 62
    4
 10
86.988726114649623
 20
102.65923566878982
 11
86.988726114649623
 21
1.1146496815286682
  0
LINE
  8
_0-0_
  6
CENTER1
 62
    4
 10
88.258726114649619
 20
102.65923566878982
 11
88.258726114649619
 21
1.1146496815286682
  0
LINE
  8
_0-0_
  6
CENTER1
 62
    4
 10
89.528726114649615
 20
102.65923566878982
 11
89.528726114649615
 21
1.1146496815286682
  0
LINE
  8
_0-0_
  6
CENTER1
 62
    4
 10
90.798726114649611
 20
102.65923566878982
 11
90.798726114649611
 21
1.1146496815286682
  0
LINE
  8
_0-0_
  6
CENTER1
 62
    4
 10
92.068726114649607
 20
102.65923566878982
 11
92.068726114649607
 21
1.1146496815286682
  0
LINE
  8
_0-0_
  6
CENTER1
 62
    4
 10
93.338726114649603
 20
102.65923566878982
 11
93.338726114649603
 21
1.1146496815286682
  0
LINE
  8
_0-0_
  6
CENTER1
 62
    4
 10
94.608726114649599
 20
102.65923566878982
 11
94.608726114649599
 21
1.1146496815286682
  0
LINE
  8
_0-0_
  6
CENTER1
 62
    4
 10
95.878726114649595
 20
102.65923566878982
 11
95.878726114649595
 21
1.1146496815286682
  0
LINE
  8
_0-0_
  6
CENTER1
 62
    4
 10
97.148726114649591
 20
102.65923566878982
 11
97.148726114649591
 21
1.1146496815286682
  0
LINE
  8
_0-0_
  6
CENTER1
 62
    4
 10
98.418726114649587
 20
102.65923566878982
 11
98.418726114649587
 21
1.1146496815286682
  0
LINE
  8
_0-0_
  6
CENTER1
 62
    4
 10
99.688726114649583
 20
102.65923566878982
 11
99.688726114649583
 21
1.1146496815286682
  0
LINE
  8
_0-0_
  6
CENTER1
 62
    4
 10
100.95872611464958
 20
102.65923566878982
 11
100.95872611464958
 21
1.1146496815286682
  0
LINE
  8
_0-0_
  6
CENTER1
 62
    4
 10
102.22872611464958
 20
102.65923566878982
 11
102.22872611464958
 21
1.1146496815286682
  0
LINE
  8
_0-0_
  6
CENTER1
 62
    4
 10
103.49872611464957
 20
102.65923566878982
 11
103.49872611464957
 21
1.1146496815286682
  0
LINE
  8
_0-0_
  6
CENTER1
 62
    4
 10
104.76872611464957
 20
102.65923566878982
 11
104.76872611464957
 21
1.1146496815286682
  0
LINE
  8
_0-0_
  6
CENTER1
 62
    4
 10
106.03872611464956
 20
102.65923566878982
 11
106.03872611464956
 21
1.1146496815286682
  0
LINE
  8
_0-0_
  6
CENTER1
 62
    4
 10
107.30872611464956
 20
102.65923566878982
 11
107.30872611464956
 21
1.1146496815286682
  0
LINE
  8
_0-0_
  6
CENTER1
 62
    4
 10
108.57872611464956
 20
102.65923566878982
 11
108.57872611464956
 21
1.1146496815286682
  0
LINE
  8
_0-0_
  6
CENTER1
 62
    4
 10
109.84872611464955
 20
102.65923566878982
 11
109.84872611464955
 21
1.1146496815286682
  0
LINE
  8
_0-0_
  6
CENTER1
 62
    4
 10
111.11872611464955
 20
102.65923566878982
 11
111.11872611464955
 21
1.1146496815286682
  0
LINE
  8
_0-0_
  6
CENTER1
 62
    4
 10
112.38872611464956
 20
102.65923566878982
 11
112.38872611464956
 21
1.1146496815286682
  0
LINE
  8
_0-0_
  6
CENTER1
 62
    4
 10
113.65872611464957
 20
102.65923566878982
 11
113.65872611464957
 21
1.1146496815286682
  0
LINE
  8
_0-0_
  6
CENTER1
 62
    4
 10
114.92872611464958
 20
102.65923566878982
 11
114.92872611464958
 21
1.1146496815286682
  0
LINE
  8
_0-0_
  6
CENTER1
 62
    4
 10
116.19872611464959
 20
102.65923566878982
 11
116.19872611464959
 21
1.1146496815286682
  0
LINE
  8
_0-0_
  6
CENTER1
 62
    4
 10
117.4687261146496
 20
102.65923566878982
 11
117.4687261146496
 21
1.1146496815286682
  0
LINE
  8
_0-0_
  6
CENTER1
 62
    4
 10
118.73872611464961
 20
102.65923566878982
 11
118.73872611464961
 21
1.1146496815286682
  0
LINE
  8
_0-0_
  6
CENTER1
 62
    4
 10
120.00872611464962
 20
102.65923566878982
 11
120.00872611464962
 21
1.1146496815286682
  0
LINE
  8
_0-0_
  6
CENTER1
 62
    4
 10
121.27872611464963
 20
102.65923566878982
 11
121.27872611464963
 21
1.1146496815286682
  0
LINE
  8
_0-0_
  6
CENTER1
 62
    4
 10
122.54872611464964
 20
102.65923566878982
 11
122.54872611464964
 21
1.1146496815286682
  0
LINE
  8
_0-0_
  6
CENTER1
 62
    4
 10
123.81872611464965
 20
102.65923566878982
 11
123.81872611464965
 21
1.1146496815286682
  0
LINE
  8
_0-0_
  6
CENTER1
 62
    4
 10
125.08872611464966
 20
102.65923566878982
 11
125.08872611464966
 21
1.1146496815286682
  0
LINE
  8
_0-0_
  6
CENTER1
 62
    4
 10
126.35872611464967
 20
102.65923566878982
 11
126.35872611464967
 21
1.1146496815286682
  0
LINE
  8
_0-0_
  6
CENTER1
 62
    4
 10
127.62872611464968
 20
102.65923566878982
 11
127.62872611464968
 21
1.1146496815286682
  0
LINE
  8
_0-0_
  6
CENTER1
 62
    4
 10
128.89872611464969
 20
102.65923566878982
 11
128.89872611464969
 21
1.1146496815286682
  0
LINE
  8
_0-0_
  6
CENTER1
 62
    4
 10
130.1687261146497
 20
102.65923566878982
 11
130.1687261146497
 21
1.1146496815286682
  0
LINE
  8
_0-0_
  6
CENTER1
 62
    4
 10
131.43872611464971
 20
102.65923566878982
 11
131.43872611464971
 21
1.1146496815286682
  0
LINE
  8
_0-0_
  6
CENTER1
 62
    4
 10
132.70872611464972
 20
102.65923566878982
 11
132.70872611464972
 21
1.1146496815286682
  0
LINE
  8
_0-0_
  6
CENTER1
 62
    4
 10
133.97872611464973
 20
102.65923566878982
 11
133.97872611464973
 21
1.1146496815286682
  0
LINE
  8
_0-0_
  6
CENTER1
 62
    4
 10
135.24872611464974
 20
102.65923566878982
 11
135.24872611464974
 21
1.1146496815286682
  0
LINE
  8
_0-0_
  6
CENTER1
 62
    4
 10
136.51872611464975
 20
102.65923566878982
 11
136.51872611464975
 21
1.1146496815286682
  0
LINE
  8
_0-0_
  6
CENTER1
 62
    4
 10
137.78872611464976
 20
102.65923566878982
 11
137.78872611464976
 21
1.1146496815286682
  0
LINE
  8
_0-0_
  6
CENTER1
 62
    4
 10
139.05872611464977
 20
102.65923566878982
 11
139.05872611464977
 21
1.1146496815286682
  0
LINE
  8
_0-0_
  6
CENTER1
 62
    4
 10
140.32872611464978
 20
102.65923566878982
 11
140.32872611464978
 21
1.1146496815286682
  0
LINE
  8
_0-0_
  6
CENTER1
 62
    4
 10
141.59872611464979
 20
102.65923566878982
 11
141.59872611464979
 21
1.1146496815286682
  0
LINE
  8
_0-0_
  6
CENTER1
 62
    4
 10
142.8687261146498
 20
102.65923566878982
 11
142.8687261146498
 21
1.1146496815286682
  0
LINE
  8
_0-0_
  6
CENTER1
 62
    4
 10
144.13872611464981
 20
102.65923566878982
 11
144.13872611464981
 21
1.1146496815286682
  0
LINE
  8
_0-0_
  6
CENTER1
 62
    4
 10
145.40872611464982
 20
102.65923566878982
 11
145.40872611464982
 21
1.1146496815286682
  0
LINE
  8
_0-0_
  6
CENTER1
 62
    4
 10
146.67872611464983
 20
102.65923566878982
 11
146.67872611464983
 21
1.1146496815286682
  0
LINE
  8
_0-0_
  6
CENTER1
 62
    4
 10
147.94872611464984
 20
102.65923566878982
 11
147.94872611464984
 21
1.1146496815286682
  0
LINE
  8
_0-0_
  6
CENTER1
 62
    4
 10
149.21872611464985
 20
102.65923566878982
 11
149.21872611464985
 21
1.1146496815286682
  0
LINE
  8
_0-0_
  6
CENTER1
 62
    4
 10
150.48872611464986
 20
102.65923566878982
 11
150.48872611464986
 21
1.1146496815286682
  0
LINE
  8
_0-0_
  6
CENTER1
 62
    4
 10
151.75872611464987
 20
102.65923566878982
 11
151.75872611464987
 21
1.1146496815286682
  0
LINE
  8
_0-0_
  6
CENTER1
 62
    4
 10
153.02872611464988
 20
102.65923566878982
 11
153.02872611464988
 21
1.1146496815286682
  0
LINE
  8
_0-0_
  6
CENTER1
 62
    4
 10
154.2987261146499
 20
102.65923566878982
 11
154.2987261146499
 21
1.1146496815286682
  0
LINE
  8
_0-0_
  6
CENTER1
 62
    4
 10
155.56872611464991
 20
102.65923566878982
 11
155.56872611464991
 21
1.1146496815286682
  0
LINE
  8
_0-0_
  6
CENTER1
 62
    4
 10
156.83872611464992
 20
102.65923566878982
 11
156.83872611464992
 21
1.1146496815286682
  0
LINE
  8
_0-0_
  6
CENTER1
 62
    4
 10
158.10872611464993
 20
102.65923566878982
 11
158.10872611464993
 21
1.1146496815286682
  0
LINE
  8
_0-0_
  6
CENTER1
 62
    4
 10
159.37872611464994
 20
102.65923566878982
 11
159.37872611464994
 21
1.1146496815286682
  0
LINE
  8
_0-0_
  6
CENTER1
 62
    4
 10
160.64872611464995
 20
102.65923566878982
 11
160.64872611464995
 21
1.1146496815286682
  0
LINE
  8
_0-0_
  6
CENTER1
 62
    4
 10
161.91872611464996
 20
102.65923566878982
 11
161.91872611464996
 21
1.1146496815286682
  0
LINE
  8
_0-0_
  6
CENTER1
 62
    4
 10
163.18872611464997
 20
102.65923566878982
 11
163.18872611464997
 21
1.1146496815286682
  0
LINE
  8
_0-0_
  6
CENTER1
 62
    4
 10
164.45872611464998
 20
102.65923566878982
 11
164.45872611464998
 21
1.1146496815286682
  0
LINE
  8
_0-0_
  6
CENTER1
 62
    4
 10
165.72872611464999
 20
102.65923566878982
 11
165.72872611464999
 21
1.1146496815286682
  0
LINE
  8
_0-0_
  6
CENTER1
 62
    4
 10
166.99872611465
 20
102.65923566878982
 11
166.99872611465
 21
1.1146496815286682
  0
CIRCLE
  8
_0-1_
  6
CONTINUOUS
 62
    7
 10
84.448726114649574
 20
70.061401273885366
 40
0.4
  0
CIRCLE
  8
_0-1_
  6
CONTINUOUS
 62
    7
 10
102.22872611464958
 20
62.44140127388534
 40
0.4
  0
CIRCLE
  8
_0-1_
  6
CONTINUOUS
 62
    7
 10
102.22872611464958
 20
70.061401273885366
 40
0.4
  0
CIRCLE
  8
_0-1_
  6
CONTINUOUS
 62
    7
 10
99.688726114649569
 20
62.44140127388534
 40
0.4
  0
CIRCLE
  8
_0-1_
  6
CONTINUOUS
 62
    7
 10
99.688726114649569
 20
70.061401273885366
 40
0.4
  0
CIRCLE
  8
_0-1_
  6
CONTINUOUS
 62
    7
 10
97.148726114649577
 20
62.441401273885347
 40
0.4
  0
CIRCLE
  8
_0-1_
  6
CONTINUOUS
 62
    7
 10
97.148726114649577
 20
70.061401273885366
 40
0.4
  0
CIRCLE
  8
_0-1_
  6
CONTINUOUS
 62
    7
 10
94.608726114649571
 20
62.441401273885347
 40
0.4
  0
CIRCLE
  8
_0-1_
  6
CONTINUOUS
 62
    7
 10
94.608726114649571
 20
70.061401273885366
 40
0.4
  0
CIRCLE
  8
_0-1_
  6
CONTINUOUS
 62
    7
 10
92.068726114649579
 20
62.441401273885347
 40
0.4
  0
CIRCLE
  8
_0-1_
  6
CONTINUOUS
 62
    7
 10
92.068726114649579
 20
70.061401273885366
 40
0.4
  0
CIRCLE
  8
_0-1_
  6
CONTINUOUS
 62
    7
 10
89.528726114649572
 20
62.441401273885347
 40
0.4
  0
CIRCLE
  8
_0-1_
  6
CONTINUOUS
 62
    7
 10
89.528726114649572
 20
70.061401273885366
 40
0.4
  0
CIRCLE
  8
_0-1_
  6
CONTINUOUS
 62
    7
 10
86.98872611464958
 20
62.441401273885347
 40
0.4
  0
CIRCLE
  8
_0-1_
  6
CONTINUOUS
 62
    7
 10
86.98872611464958
 20
70.061401273885366
 40
0.4
  0
CIRCLE
  8
_0-1_
  6
CONTINUOUS
 62
    7
 10
84.448726114649574
 20
62.441401273885347
 40
0.4
  0
CIRCLE
  8
_0-1_
  6
CONTINUOUS
 62
    7
 10
81.908726114649568
 20
62.441401273885347
 40
0.4
  0
CIRCLE
  8
_0-1_
  6
CONTINUOUS
 62
    7
 10
81.908726114649582
 20
70.061401273885366
 40
0.4
  0
CIRCLE
  8
_0-1_
  6
CONTINUOUS
 62
    7
 10
79.368726114649576
 20
62.441401273885347
 40
0.4
  0
CIRCLE
  8
_0-1_
  6
CONTINUOUS
 62
    7
 10
79.368726114649576
 20
70.061401273885366
 40
0.4
  0
CIRCLE
  8
_0-1_
  6
CONTINUOUS
 62
    7
 10
76.828726114649584
 20
62.441401273885347
 40
0.4
  0
CIRCLE
  8
_0-1_
  6
CONTINUOUS
 62
    7
 10
76.828726114649584
 20
70.061401273885366
 40
0.4
  0
CIRCLE
  8
_0-1_
  6
CONTINUOUS
 62
    7
 10
74.288726114649577
 20
62.441401273885347
 40
0.4
  0
CIRCLE
  8
_0-1_
  6
CONTINUOUS
 62
    7
 10
74.288726114649577
 20
70.061401273885366
 40
0.4
  0
CIRCLE
  8
_0-1_
  6
CONTINUOUS
 62
    7
 10
71.748726114649571
 20
62.441401273885347
 40
0.4
  0
CIRCLE
  8
_0-1_
  6
CONTINUOUS
 62
    7
 10
71.748726114649571
 20
70.061401273885366
 40
0.4
  0
CIRCLE
  8
_0-1_
  6
CONTINUOUS
 62
    7
 10
69.208726114649579
 20
62.441401273885347
 40
0.4
  0
CIRCLE
  8
_0-1_
  6
CONTINUOUS
 62
    7
 10
69.208726114649579
 20
70.061401273885366
 40
0.4
  0
TEXT
  8
_0-1_
 62
    4
 10
80.638726114649643
 20
62.441401273885347
 40
1
 41
1
 50
180
  1
SCK
  0
TEXT
  8
_0-1_
 62
    4
 10
78.098726114649651
 20
62.441401273885347
 40
1
 41
1
 50
180
  1
MISO
  0
TEXT
  8
_0-1_
 62
    4
 10
75.558726114649659
 20
62.441401273885347
 40
1
 41
1
 50
180
  1
MOSI
  0
TEXT
  8
_0-1_
 62
    4
 10
83.178726114649635
 20
62.441401273885347
 40
1
 41
1
 50
180
  1
AVCC
  0
TEXT
  8
_0-1_
 62
    4
 10
85.718726114649627
 20
62.441401273885347
 40
1
 41
1
 50
180
  1
AREF
  0
TEXT
  8
_0-1_
 62
    4
 10
88.258726114649619
 20
62.441401273885347
 40
1
 41
1
 50
180
  1
GND
  0
TEXT
  8
_0-1_
 62
    4
 10
90.798726114649611
 20
62.441401273885347
 40
1
 41
1
 50
180
  1
A0
  0
TEXT
  8
_0-1_
 62
    4
 10
93.338726114649603
 20
62.441401273885347
 40
1
 41
1
 50
180
  1
A1
  0
TEXT
  8
_0-1_
 62
    4
 10
95.878726114649595
 20
62.441401273885347
 40
1
 41
1
 50
180
  1
A2
  0
TEXT
  8
_0-1_
 62
    4
 10
98.418726114649587
 20
62.441401273885347
 40
1
 41
1
 50
180
  1
A3
  0
TEXT
  8
_0-1_
 62
    4
 10
100.95872611464958
 20
62.44140127388534
 40
1
 41
1
 50
180
  1
A4
  0
TEXT
  8
_0-1_
 62
    4
 10
103.49872611464957
 20
62.44140127388534
 40
1
 41
1
 50
180
  1
A5
  0
TEXT
  8
_0-1_
 62
    4
 10
103.49872611464957
 20
71.331401273885362
 40
1
 41
1
 50
180
  1
RST
  0
TEXT
  8
_0-1_
 62
    4
 10
100.95872611464958
 20
71.331401273885362
 40
1
 41
1
 50
180
  1
D0
  0
TEXT
  8
_0-1_
 62
    4
 10
98.418726114649587
 20
71.331401273885362
 40
1
 41
1
 50
180
  1
D1
  0
TEXT
  8
_0-1_
 62
    4
 10
88.258726114649619
 20
71.331401273885362
 40
1
 41
1
 50
180
  1
VCC
  0
TEXT
  8
_0-1_
 62
    4
 10
85.718726114649627
 20
71.331401273885362
 40
1
 41
1
 50
180
  1
GND
  0
TEXT
  8
_0-1_
 62
    4
 10
83.178726114649635
 20
71.331401273885362
 40
1
 41
1
 50
180
  1
XTAL
  0
TEXT
  8
_0-1_
 62
    4
 10
80.638726114649643
 20
71.331401273885362
 40
1
 41
1
 50
180
  1
XTAL
  0
TEXT
  8
_0-1_
 62
    4
 10
78.098726114649651
 20
71.331401273885362
 40
1
 41
1
 50
180
  1
D5
  0
TEXT
  8
_0-1_
 62
    4
 10
75.558726114649659
 20
71.331401273885362
 40
1
 41
1
 50
180
  1
D6
  0
TEXT
  8
_0-1_
 62
    4
 10
73.018726114649667
 20
71.331401273885362
 40
1
 41
1
 50
180
  1
D7
  0
TEXT
  8
_0-1_
 62
    4
 10
70.478726114649675
 20
71.331401273885362
 40
1
 41
1
 50
180
  1
D8
  0
TEXT
  8
_0-1_
 62
    4
 10
80.638726114649643
 20
61.171401273885344
 40
1
 41
1
 50
180
  1
D13
  0
TEXT
  8
_0-1_
 62
    4
 10
78.098726114649651
 20
61.171401273885344
 40
1
 41
1
 50
180
  1
D12
  0
TEXT
  8
_0-1_
 62
    4
 10
75.558726114649659
 20
61.171401273885344
 40
1
 41
1
 50
180
  1
D11
  0
TEXT
  8
_0-1_
 62
    4
 10
73.018726114649667
 20
62.441401273885347
 40
1
 41
1
 50
180
  1
D10
  0
TEXT
  8
_0-1_
 62
    4
 10
70.478726114649675
 20
62.441401273885347
 40
1
 41
1
 50
180
  1
D9
  0
TEXT
  8
_0-1_
 62
    4
 10
95.878726114649595
 20
71.331401273885362
 40
1
 41
1
 50
180
  1
D2
  0
TEXT
  8
_0-1_
 62
    4
 10
93.338726114649603
 20
71.331401273885362
 40
1
 41
1
 50
180
  1
D3
  0
TEXT
  8
_0-1_
 62
    4
 10
90.798726114649611
 20
71.331401273885362
 40
1
 41
1
 50
180
  1
D4
  0
CIRCLE
  8
_0-1_
  6
CONTINUOUS
 62
    7
 10
78.598726114649651
 20
76.411401273885375
 40
0.4
  0
CIRCLE
  8
_0-1_
  6
CONTINUOUS
 62
    7
 10
82.678726114649649
 20
76.411401273885375
 40
0.4
  0
CIRCLE
  8
_0-1_
  6
CONTINUOUS
 62
    7
 10
82.678726114649649
 20
78.951401273885381
 40
0.4
  0
CIRCLE
  8
_0-1_
  6
CONTINUOUS
 62
    7
 10
82.678726114649649
 20
84.031401273885393
 40
0.4
  0
CIRCLE
  8
_0-1_
  6
CONTINUOUS
 62
    7
 10
78.598726114649651
 20
78.951401273885381
 40
0.4
  0
CIRCLE
  8
_0-1_
  6
CONTINUOUS
 62
    7
 10
78.598726114649651
 20
84.031401273885393
 40
0.4
  0
CIRCLE
  8
_0-1_
  6
CONTINUOUS
 62
    7
 10
84.448726114649631
 20
59.901401273885334
 40
0.4
  0
CIRCLE
  8
_0-1_
  6
CONTINUOUS
 62
    7
 10
86.988726114649623
 20
59.901401273885334
 40
0.4
  0
LINE
  8
_0-1_
  6
CONTINUOUS
 62
    7
 10
84.448726114649631
 20
62.44140127388534
 11
84.448726114649631
 21
59.901401273885334
  0
CIRCLE
  8
_0-1_
  6
CONTINUOUS
 62
    7
 10
102.22872611464958
 20
67.521401273885346
 40
0.4
  0
CIRCLE
  8
_0-1_
  6
CONTINUOUS
 62
    7
 10
92.068726114649607
 20
67.521401273885346
 40
0.4
  0
LINE
  8
_0-1_
  6
CONTINUOUS
 62
    7
 10
86.988726114649623
 20
67.521401273885346
 11
92.068726114649607
 21
67.521401273885346
  0
LINE
  8
_0-1_
  6
CONTINUOUS
 62
    7
 10
102.22872611464958
 20
70.061401273885352
 11
102.22872611464958
 21
67.521401273885346
  0
LINE
  8
_0-1_
  6
CONTINUOUS
 62
    7
 10
86.988726114649623
 20
70.061401273885352
 11
86.988726114649623
 21
64.981401273885353
  0
LINE
  8
_0-1_
  6
CONTINUOUS
 62
    7
 10
86.988726114649623
 20
64.981401273885353
 11
81.908726114649639
 21
64.981401273885353
  0
CIRCLE
  8
_0-1_
  6
CONTINUOUS
 62
    7
 10
89.528726114649615
 20
73.871401273885354
 40
0.4
  0
CIRCLE
  8
_0-1_
  6
CONTINUOUS
 62
    7
 10
92.068726114649607
 20
73.871401273885354
 40
0.4
  0
CIRCLE
  8
_0-1_
  6
CONTINUOUS
 62
    7
 10
94.608726114649599
 20
73.871401273885354
 40
0.4
  0
CIRCLE
  8
_0-1_
  6
CONTINUOUS
 62
    7
 10
97.148726114649591
 20
73.871401273885354
 40
0.4
  0
CIRCLE
  8
_0-1_
  6
CONTINUOUS
 62
    7
 10
99.688726114649583
 20
73.871401273885354
 40
0.4
  0
CIRCLE
  8
_0-1_
  6
CONTINUOUS
 62
    7
 10
89.528726114649615
 20
81.491401273885344
 40
0.4
  0
CIRCLE
  8
_0-1_
  6
CONTINUOUS
 62
    7
 10
92.068726114649607
 20
81.491401273885344
 40
0.4
  0
CIRCLE
  8
_0-1_
  6
CONTINUOUS
 62
    7
 10
94.608726114649599
 20
81.491401273885344
 40
0.4
  0
CIRCLE
  8
_0-1_
  6
CONTINUOUS
 62
    7
 10
97.148726114649591
 20
81.491401273885344
 40
0.4
  0
CIRCLE
  8
_0-1_
  6
CONTINUOUS
 62
    7
 10
99.688726114649583
 20
81.491401273885344
 40
0.4
  0
CIRCLE
  8
_0-1_
  6
CONTINUOUS
 62
    7
 10
102.22872611464958
 20
81.491401273885344
 40
0.4
  0
LINE
  8
_0-1_
  6
CONTINUOUS
 62
    7
 10
89.528726114649615
 20
73.871401273885354
 11
89.528726114649615
 21
70.061401273885352
  0
LINE
  8
_0-1_
  6
CONTINUOUS
 62
    7
 10
92.068726114649607
 20
73.871401273885354
 11
92.068726114649607
 21
70.061401273885352
  0
LINE
  8
_0-1_
  6
CONTINUOUS
 62
    7
 10
94.608726114649599
 20
73.871401273885354
 11
94.608726114649599
 21
70.061401273885352
  0
LINE
  8
_0-1_
  6
CONTINUOUS
 62
    7
 10
97.148726114649591
 20
73.871401273885354
 11
97.148726114649591
 21
70.061401273885352
  0
TEXT
  8
_0-1_
 62
    4
 10
89.528726114649615
 20
80.221401273885348
 40
1
 41
1
 50
0
  1
1
  0
TEXT
  8
_0-1_
 62
    4
 10
92.068726114649607
 20
80.221401273885348
 40
1
 41
1
 50
0
  1
A
  0
TEXT
  8
_0-1_
 62
    4
 10
94.608726114649599
 20
80.221401273885348
 40
1
 41
1
 50
0
  1
F
  0
TEXT
  8
_0-1_
 62
    4
 10
97.148726114649591
 20
80.221401273885348
 40
1
 41
1
 50
0
  1
2
  0
TEXT
  8
_0-1_
 62
    4
 10
99.688726114649583
 20
80.221401273885348
 40
1
 41
1
 50
0
  1
3
  0
TEXT
  8
_0-1_
 62
    4
 10
102.22872611464958
 20
80.221401273885348
 40
1
 41
1
 50
0
  1
B
  0
TEXT
  8
_0-1_
 62
    4
 10
89.528726114649615
 20
73.871401273885354
 40
1
 41
1
 50
0
  1
E
  0
TEXT
  8
_0-1_
 62
    4
 10
92.068726114649607
 20
73.871401273885354
 40
1
 41
1
 50
0
  1
D
  0
TEXT
  8
_0-1_
 62
    4
 10
97.148726114649591
 20
73.871401273885354
 40
1
 41
1
 50
0
  1
C
  0
TEXT
  8
_0-1_
 62
    4
 10
94.608726114649599
 20
73.871401273885354
 40
1
 41
1
 50
0
  1
DP
  0
TEXT
  8
_0-1_
 62
    4
 10
99.688726114649583
 20
73.871401273885354
 40
1
 41
1
 50
0
  1
G
  0
LINE
  8
_0-1_
  6
CONTINUOUS
 62
    7
 10
99.688726114649583
 20
73.871401273885354
 11
99.688726114649583
 21
70.061401273885352
  0
CIRCLE
  8
_0-1_
  6
CONTINUOUS
 62
    7
 10
97.148726114649591
 20
86.571401273885357
 40
0.4
  0
CIRCLE
  8
_0-1_
  6
CONTINUOUS
 62
    7
 10
107.30872611464956
 20
86.571401273885357
 40
0.4
  0
LINE
  8
_0-1_
  6
CONTINUOUS
 62
    7
 10
84.448726114649631
 20
73.871401273885354
 11
85.218726114649641
 21
75.14140127388535
  0
LINE
  8
_0-1_
  6
CONTINUOUS
 62
    7
 10
102.22872611464958
 20
62.44140127388534
 11
104.76872611464957
 21
62.44140127388534
  0
LINE
  8
_0-1_
  6
CONTINUOUS
 62
    7
 10
104.76872611464957
 20
62.44140127388534
 11
104.76872611464957
 21
76.41140127388536
  0
LINE
  8
_0-1_
  6
CONTINUOUS
 62
    7
 10
104.76872611464957
 20
76.41140127388536
 11
92.068726114649607
 21
76.41140127388536
  0
LINE
  8
_0-1_
  6
CONTINUOUS
 62
    7
 10
92.068726114649607
 20
76.41140127388536
 11
92.068726114649607
 21
81.491401273885344
  0
LINE
  8
_0-1_
  6
CONTINUOUS
 62
    7
 10
94.608726114649599
 20
81.491401273885344
 11
94.608726114649599
 21
78.011401273885355
  0
LINE
  8
_0-1_
  6
CONTINUOUS
 62
    7
 10
94.608726114649599
 20
78.011401273885355
 11
106.36872611464958
 21
78.011401273885355
  0
CIRCLE
  8
_0-1_
  6
CONTINUOUS
 62
    7
 10
102.22872611464958
 20
62.44140127388534
 40
0.8700000000000001
  0
LINE
  8
_0-1_
  6
CONTINUOUS
 62
    7
 10
99.688726114649583
 20
62.44140127388534
 11
99.688726114649583
 21
60.37140127388534
  0
LINE
  8
_0-1_
  6
CONTINUOUS
 62
    7
 10
106.36872611464958
 20
78.011401273885355
 11
106.36872611464958
 21
60.37140127388534
  0
LINE
  8
_0-1_
  6
CONTINUOUS
 62
    7
 10
99.688726114649583
 20
60.37140127388534
 11
106.36872611464958
 21
60.37140127388534
  0
LINE
  8
_0-1_
  6
CONTINUOUS
 62
    7
 10
97.148726114649591
 20
62.44140127388534
 11
97.148726114649591
 21
58.771401273885346
  0
LINE
  8
_0-1_
  6
CONTINUOUS
 62
    7
 10
97.148726114649591
 20
58.771401273885346
 11
107.96872611464957
 21
58.771401273885346
  0
LINE
  8
_0-1_
  6
CONTINUOUS
 62
    7
 10
107.96872611464957
 20
81.491401273885344
 11
107.96872611464957
 21
58.771401273885346
  0
LINE
  8
_0-1_
  6
CONTINUOUS
 62
    7
 10
102.22872611464958
 20
81.491401273885344
 11
107.96872611464957
 21
81.491401273885344
  0
LINE
  8
_0-1_
  6
CONTINUOUS
 62
    7
 10
94.608726114649599
 20
62.44140127388534
 11
94.608726114649599
 21
57.171401273885344
  0
LINE
  8
_0-1_
  6
CONTINUOUS
 62
    7
 10
94.608726114649599
 20
57.171401273885344
 11
109.56872611464956
 21
57.171401273885344
  0
CIRCLE
  8
_0-1_
  6
CONTINUOUS
 62
    7
 10
109.56872611464955
 20
84.031401273885351
 40
0.4
  0
LINE
  8
_0-1_
  6
CONTINUOUS
 62
    7
 10
107.30872611464956
 20
86.571401273885357
 11
111.63872611464956
 21
86.571401273885357
  0
LINE
  8
_0-1_
  6
CONTINUOUS
 62
    7
 10
109.56872611464956
 20
84.031401273885351
 11
109.56872611464956
 21
57.171401273885344
  0
LINE
  8
_0-1_
  6
CONTINUOUS
 62
    7
 10
99.688726114649583
 20
84.031401273885351
 11
99.688726114649583
 21
81.491401273885344
  0
LINE
  8
_0-1_
  6
CONTINUOUS
 62
    7
 10
97.148726114649591
 20
86.571401273885357
 11
97.148726114649591
 21
81.491401273885344
  0
LINE
  8
_0-1_
  6
CONTINUOUS
 62
    7
 10
78.598726114649651
 20
84.031401273885393
 11
85.218726114649641
 21
84.031401273885393
  0
LINE
  8
_0-2_
  6
CONTINUOUS
 62
    1
 10
97.148726114649591
 20
86.571401273885357
 11
107.30872611464956
 21
86.571401273885357
  0
LINE
  8
_0-2_
  6
CONTINUOUS
 62
    1
 10
99.688726114649583
 20
84.031401273885351
 11
109.56872611464956
 21
84.031401273885351
  0
CIRCLE
  8
_0-1_
  6
CONTINUOUS
 62
    7
 10
89.528726114649615
 20
86.571401273885357
 40
0.4
  0
LINE
  8
_0-1_
  6
CONTINUOUS
 62
    7
 10
89.528726114649615
 20
86.571401273885357
 11
89.528726114649615
 21
81.491401273885344
  0
CIRCLE
  8
_0-1_
  6
CONTINUOUS
 62
    7
 10
79.368726114649647
 20
86.571401273885357
 40
0.4
  0
LINE
  8
_0-2_
  6
CONTINUOUS
 62
    1
 10
79.368726114649647
 20
86.571401273885357
 11
89.528726114649615
 21
86.571401273885357
  0
LINE
  8
_0-1_
  6
CONTINUOUS
 62
    7
 10
79.368726114649647
 20
86.571401273885357
 11
74.288726114649663
 21
86.571401273885357
  0
LINE
  8
_0-1_
  6
CONTINUOUS
 62
    7
 10
74.288726114649663
 20
86.571401273885357
 11
74.288726114649663
 21
70.061401273885352
  0
LINE
  8
_0-1_
  6
CONTINUOUS
 62
    7
 10
81.908726114649639
 20
75.14140127388535
 11
81.908726114649639
 21
70.061401273885352
  0
LINE
  8
_0-1_
  6
CONTINUOUS
 62
    7
 10
79.368726114649647
 20
75.14140127388535
 11
79.368726114649647
 21
70.061401273885352
  0
LINE
  8
_0-1_
  6
CONTINUOUS
 62
    7
 10
78.598726114649651
 20
76.411401273885375
 11
79.368726114649647
 21
75.14140127388535
  0
LINE
  8
_0-1_
  6
CONTINUOUS
 62
    7
 10
82.678726114649649
 20
76.41140127388536
 11
81.908726114649639
 21
75.14140127388535
  0
LINE
  8
_0-1_
  6
CONTINUOUS
 62
    7
 10
82.678726114649649
 20
78.951401273885381
 11
82.678726114649649
 21
76.41140127388536
  0
LINE
  8
_0-1_
  6
CONTINUOUS
 62
    7
 10
78.598726114649651
 20
78.951401273885381
 11
78.598726114649651
 21
76.411401273885375
  0
LINE
  8
_0-1_
  6
CONTINUOUS
 62
    7
 10
85.218726114649641
 20
89.111401273885349
 11
85.218726114649641
 21
75.14140127388535
  0
LINE
  8
_0-2_
  6
CONTINUOUS
 62
    1
 10
66.668726114649687
 20
84.031401273885365
 11
71.748726114649685
 21
84.031401273885365
  0
LINE
  8
_0-2_
  6
CONTINUOUS
 62
    1
 10
71.748726114649685
 20
84.031401273885365
 11
71.748726114649685
 21
76.411401273885346
  0
LINE
  8
_0-2_
  6
CONTINUOUS
 62
    1
 10
71.748726114649685
 20
76.411401273885346
 11
66.668726114649687
 21
76.411401273885346
  0
LINE
  8
_0-2_
  6
CONTINUOUS
 62
    1
 10
66.668726114649687
 20
76.411401273885346
 11
66.668726114649687
 21
84.031401273885365
  0
LINE
  8
_0-1_
  6
CONTINUOUS
 62
    7
 10
66.668726114649672
 20
89.111401273885349
 11
66.668726114649687
 21
76.41140127388536
  0
CIRCLE
  8
_0-1_
  6
CONTINUOUS
 62
    7
 10
66.668726114649687
 20
84.031401273885351
 40
0.4
  0
CIRCLE
  8
_0-1_
  6
CONTINUOUS
 62
    7
 10
66.668726114649687
 20
76.411401273885346
 40
0.4
  0
CIRCLE
  8
_0-1_
  6
CONTINUOUS
 62
    7
 10
71.748726114649656
 20
84.031401273885351
 40
0.4
  0
CIRCLE
  8
_0-1_
  6
CONTINUOUS
 62
    7
 10
71.748726114649656
 20
76.41140127388536
 40
0.4
  0
LINE
  8
_0-1_
  6
CONTINUOUS
 62
    7
 10
71.748726114649671
 20
70.061401273885352
 11
71.748726114649671
 21
84.031401273885351
  0
LINE
  8
_0-1_
  6
CONTINUOUS
 62
    7
 10
61.588726114649702
 20
89.111401273885349
 11
85.218726114649641
 21
89.111401273885349
  0
LINE
  8
_0-1_
  6
CONTINUOUS
 62
    7
 10
69.208726114649679
 20
73.871401273885354
 11
69.208726114649679
 21
70.461401273885357
  0
CIRCLE
  8
_0-1_
  6
CONTINUOUS
 62
    7
 10
89.528726114649615
 20
57.361401273885328
 40
0.4
  0
CIRCLE
  8
_0-1_
  6
CONTINUOUS
 62
    7
 10
89.528726114649615
 20
54.821401273885321
 40
0.4
  0
CIRCLE
  8
_0-1_
  6
CONTINUOUS
 62
    7
 10
79.368726114649647
 20
57.361401273885328
 40
0.4
  0
CIRCLE
  8
_0-1_
  6
CONTINUOUS
 62
    7
 10
79.368726114649647
 20
54.821401273885321
 40
0.4
  0
LINE
  8
_0-2_
  6
CONTINUOUS
 62
    1
 10
79.368726114649647
 20
54.821401273885321
 11
89.528726114649615
 21
54.821401273885321
  0
LINE
  8
_0-1_
  6
CONTINUOUS
 62
    7
 10
89.528726114649615
 20
62.44140127388534
 11
89.528726114649615
 21
54.821401273885321
  0
LINE
  8
_0-1_
  6
CONTINUOUS
 62
    7
 10
84.448726114649631
 20
70.061401273885352
 11
84.448726114649631
 21
73.871401273885354
  0
LINE
  8
_0-2_
  6
CONTINUOUS
 62
    1
 10
50.15872611464971
 20
84.031401273885365
 11
55.238726114649722
 21
84.031401273885365
  0
LINE
  8
_0-2_
  6
CONTINUOUS
 62
    1
 10
55.238726114649722
 20
84.031401273885365
 11
55.238726114649722
 21
76.41140127388536
  0
LINE
  8
_0-2_
  6
CONTINUOUS
 62
    1
 10
55.238726114649722
 20
76.41140127388536
 11
50.15872611464971
 21
76.41140127388536
  0
CIRCLE
  8
_0-1_
  6
CONTINUOUS
 62
    7
 10
55.238726114649722
 20
84.031401273885365
 40
0.4
  0
CIRCLE
  8
_0-1_
  6
CONTINUOUS
 62
    7
 10
55.238726114649722
 20
76.41140127388536
 40
0.4
  0
CIRCLE
  8
_0-1_
  6
CONTINUOUS
 62
    7
 10
50.158726114649738
 20
84.031401273885365
 40
0.4
  0
CIRCLE
  8
_0-1_
  6
CONTINUOUS
 62
    7
 10
50.158726114649738
 20
76.41140127388536
 40
0.4
  0
LINE
  8
_0-2_
  6
CONTINUOUS
 62
    1
 10
76.828726114649655
 20
77.681401273885356
 11
84.448726114649631
 21
77.681401273885356
  0
LINE
  8
_0-2_
  6
CONTINUOUS
 62
    1
 10
84.448726114649631
 20
77.681401273885356
 11
84.448726114649631
 21
75.14140127388535
  0
LINE
  8
_0-2_
  6
CONTINUOUS
 62
    1
 10
84.448726114649631
 20
75.14140127388535
 11
76.828726114649655
 21
75.14140127388535
  0
LINE
  8
_0-2_
  6
CONTINUOUS
 62
    1
 10
76.828726114649655
 20
75.14140127388535
 11
76.828726114649655
 21
77.681401273885356
  0
LINE
  8
_0-2_
  6
CONTINUOUS
 62
    1
 10
78.598726114649651
 20
84.031401273885393
 11
78.598726114649651
 21
78.951401273885381
  0
LINE
  8
_0-2_
  6
CONTINUOUS
 62
    1
 10
82.678726114649649
 20
84.031401273885393
 11
82.678726114649649
 21
78.951401273885352
  0
TEXT
  8
_0-2_
 62
    4
 10
51.428726114649734
 20
80.221401273885348
 40
1
 41
1
 50
0
  1
SWITCH
  0
TEXT
  8
_0-2_
 62
    4
 10
67.938726114649683
 20
80.221401273885348
 40
1
 41
1
 50
0
  1
SWITCH
  0
TEXT
  8
_0-2_
 62
    4
 10
102.22872611464958
 20
84.031401273885351
 40
1
 41
1
 50
0
  1
150Ω
  0
TEXT
  8
_0-2_
 62
    4
 10
76.828726114649655
 20
75.14140127388535
 40
1
 41
1
 50
0
  1
16MHZ CRYSTAL
  0
TEXT
  8
_0-2_
 62
    4
 10
100.95872611464958
 20
86.571401273885357
 40
1
 41
1
 50
0
  1
150Ω
  0
TEXT
  8
_0-2_
 62
    4
 10
83.178726114649635
 20
80.221401273885348
 40
1
 41
1
 50
0
  1
22pF
  0
TEXT
  8
_0-2_
 62
    4
 10
76.828726114649655
 20
80.221401273885348
 40
1
 41
1
 50
0
  1
22pF
  0
TEXT
  8
_0-2_
 62
    4
 10
83.178726114649635
 20
54.821401273885321
 40
1
 41
1
 50
0
  1
68kΩ
  0
TEXT
  8
_0-2_
 62
    4
 10
83.178726114649635
 20
57.361401273885328
 40
1
 41
1
 50
0
  1
15kΩ
  0
LINE
  8
_0-2_
  6
CONTINUOUS
 62
    1
 10
84.448726114649631
 20
59.901401273885334
 11
86.988726114649623
 21
59.901401273885334
  0
TEXT
  8
_0-2_
 62
    4
 10
84.448726114649631
 20
59.901401273885334
 40
1
 41
1
 50
0
  1
0.1uF
  0
CIRCLE
  8
_0-1_
  6
CONTINUOUS
 62
    7
 10
84.448726114649631
 20
72.601401273885358
 40
0.4
  0
CIRCLE
  8
_0-1_
  6
CONTINUOUS
 62
    7
 10
86.988726114649623
 20
72.601401273885358
 40
0.4
  0
LINE
  8
_0-2_
  6
CONTINUOUS
 62
    1
 10
84.448726114649631
 20
72.601401273885358
 11
86.988726114649623
 21
72.601401273885358
  0
LINE
  8
_0-2_
  6
CONTINUOUS
 62
    1
 10
92.068726114649607
 20
67.521401273885346
 11
102.22872611464958
 21
67.521401273885346
  0
TEXT
  8
_0-2_
 62
    4
 10
95.878726114649595
 20
67.521401273885346
 40
1
 41
1
 50
0
  1
10kΩ
  0
LINE
  8
_0-1_
  6
CONTINUOUS
 62
    7
 10
92.068726114649607
 20
55.571401273885343
 11
111.63872611464956
 21
55.571401273885343
  0
LINE
  8
_0-1_
  6
CONTINUOUS
 62
    7
 10
111.63872611464956
 20
86.571401273885357
 11
111.63872611464956
 21
55.571401273885343
  0
LINE
  8
_0-1_
  6
CONTINUOUS
 62
    7
 10
92.068726114649607
 20
62.44140127388534
 11
92.068726114649607
 21
55.571401273885343
  0
LINE
  8
_0-2_
  6
CONTINUOUS
 62
    1
 10
108.26872611464957
 20
57.201401273885317
 11
108.26872611464957
 21
37.201401273885317
  0
TEXT
  8
_0-2_
 62
    7
 10
106.03872611464958
 20
49.741401273885309
 40
1.5
 41
1
 50
90
  1
G
  0
TEXT
  8
_0-2_
 62
    7
 10
106.03872611464958
 20
44.661401273885325
 40
1.5
 41
1
 50
90
  1
S
  0
TEXT
  8
_0-2_
 62
    7
 10
100.95872611464958
 20
47.201401273885317
 40
1.5
 41
1
 50
90
  1
D
  0
CIRCLE
  8
_0-2_
  6
CONTINUOUS
 62
    7
 10
99.688726114649583
 20
47.201401273885317
 40
0.5
  0
CIRCLE
  8
_0-2_
  6
CONTINUOUS
 62
    7
 10
104.76872611464957
 20
49.741401273885309
 40
0.5
  0
LINE
  8
_0-2_
  6
CONTINUOUS
 62
    1
 10
108.26872611464957
 20
57.201401273885317
 11
128.26872611464955
 21
57.201401273885317
  0
LINE
  8
_0-2_
  6
CONTINUOUS
 62
    1
 10
108.26872611464957
 20
53.451401273885317
 11
128.26872611464955
 21
53.451401273885317
  0
CIRCLE
  8
_0-2_
  6
CONTINUOUS
 62
    1
 10
111.76872611464957
 20
53.451401273885317
 40
0.7500000000000001
  0
LINE
  8
_0-2_
  6
CONTINUOUS
 62
    1
 10
108.26872611464957
 20
47.201401273885317
 11
128.26872611464955
 21
47.201401273885317
  0
LINE
  8
_0-2_
  6
CONTINUOUS
 62
    1
 10
108.26872611464957
 20
40.951401273885317
 11
128.26872611464955
 21
40.951401273885317
  0
CIRCLE
  8
_0-2_
  6
CONTINUOUS
 62
    1
 10
111.76872611464957
 20
40.951401273885317
 40
0.7500000000000001
  0
LINE
  8
_0-2_
  6
CONTINUOUS
 62
    1
 10
108.26872611464957
 20
37.201401273885317
 11
128.26872611464955
 21
37.201401273885317
  0
LINE
  8
_0-2_
  6
CONTINUOUS
 62
    1
 10
128.26872611464955
 20
57.201401273885317
 11
128.26872611464955
 21
37.201401273885317
  0
CIRCLE
  8
_0-2_
  6
CONTINUOUS
 62
    7
 10
111.76872611464957
 20
53.451401273885317
 40
0.7500000000000001
  0
CIRCLE
  8
_0-2_
  6
CONTINUOUS
 62
    7
 10
111.76872611464957
 20
40.951401273885317
 40
0.7500000000000001
  0
LINE
  8
_0-2_
  6
CONTINUOUS
 62
    1
 10
108.26872611464957
 20
52.201401273885317
 11
103.81872611464956
 21
52.201401273885317
  0
LINE
  8
_0-2_
  6
CONTINUOUS
 62
    1
 10
103.81872611464956
 20
52.201401273885317
 11
103.81872611464956
 21
42.201401273885317
  0
LINE
  8
_0-2_
  6
CONTINUOUS
 62
    1
 10
103.81872611464956
 20
42.201401273885317
 11
108.26872611464957
 21
42.201401273885317
  0
TEXT
  8
_0-2_
 62
    1
 10
102.22872611464958
 20
51.011401273885305
 40
1
 41
1
 50
0
  1
TK100E06N1
  0
TEXT
  8
_0-2_
 62
    1
 10
109.84872611464955
 20
48.471401273885313
 40
1
 41
1
 50
0
  1
HEATSINK 20PB020
  0
TEXT
  8
_0-2_
 62
    4
 10
97.148726114649591
 20
44.661401273885325
 40
1
 41
1
 50
0
  1
OUT GND
  0
TEXT
  8
_0-2_
 62
    4
 10
100.95872611464958
 20
39.581401273885326
 40
1
 41
1
 50
0
  1
IN GND
  0
LINE
  8
_0-1_
  6
CONTINUOUS
 62
    7
 10
104.76872611464957
 20
44.661401273885296
 11
100.95872611464958
 21
37.041401273885278
  0
TEXT
  8
_0-1_
 62
    1
 10
71.748726114649656
 20
48.471401273885306
 40
1
 41
1
 50
0
  1
5V S-REGURATOR
  0
CIRCLE
  8
_0-1_
  6
CONTINUOUS
 62
    7
 10
74.288726114649663
 20
43.391401273885293
 40
0.4
  0
CIRCLE
  8
_0-1_
  6
CONTINUOUS
 62
    7
 10
74.288726114649663
 20
45.931401273885299
 40
0.4
  0
CIRCLE
  8
_0-1_
  6
CONTINUOUS
 62
    7
 10
74.288726114649663
 20
48.471401273885306
 40
0.4
  0
LINE
  8
_0-1_
  6
CONTINUOUS
 62
    7
 10
71.748726114649671
 20
45.931401273885299
 11
71.748726114649671
 21
37.041401273885278
  0
LINE
  8
_0-1_
  6
CONTINUOUS
 62
    7
 10
81.908726114649639
 20
59.901401273885334
 11
74.288726114649663
 21
59.901401273885334
  0
LINE
  8
_0-1_
  6
CONTINUOUS
 62
    7
 10
74.288726114649663
 20
59.901401273885334
 11
74.288726114649663
 21
48.471401273885306
  0
LINE
  8
_0-1_
  6
CONTINUOUS
 62
    7
 10
81.908726114649639
 20
64.981401273885353
 11
81.908726114649639
 21
59.901401273885334
  0
LINE
  8
_0-1_
  6
CONTINUOUS
 62
    7
 10
86.988726114649623
 20
62.44140127388534
 11
86.988726114649623
 21
57.361401273885328
  0
LINE
  8
_0-1_
  6
CONTINUOUS
 62
    7
 10
86.988726114649623
 20
57.361401273885328
 11
76.828726114649655
 21
57.361401273885328
  0
LINE
  8
_0-1_
  6
CONTINUOUS
 62
    7
 10
71.748726114649671
 20
62.44140127388534
 11
71.748726114649671
 21
52.281401273885315
  0
CIRCLE
  8
_0-1_
  6
CONTINUOUS
 62
    7
 10
71.748726114649671
 20
52.281401273885315
 40
0.4
  0
CIRCLE
  8
_0-1_
  6
CONTINUOUS
 62
    7
 10
81.908726114649639
 20
52.281401273885315
 40
0.4
  0
LINE
  8
_0-2_
  6
CONTINUOUS
 62
    1
 10
71.748726114649671
 20
52.281401273885315
 11
81.908726114649639
 21
52.281401273885315
  0
TEXT
  8
_0-2_
 62
    4
 10
77.098726114649651
 20
52.281401273885315
 40
1
 41
1
 50
0
  1
47Ω
  0
LINE
  8
_0-1_
  6
CONTINUOUS
 62
    7
 10
81.908726114649639
 20
52.281401273885315
 11
104.76872611464957
 21
52.281401273885315
  0
LINE
  8
_0-1_
  6
CONTINUOUS
 62
    7
 10
104.76872611464957
 20
52.281401273885315
 11
104.76872611464957
 21
49.741401273885309
  0
LINE
  8
_0-1_
  6
CONTINUOUS
 62
    7
 10
76.828726114649655
 20
70.061401273885352
 11
76.828726114649655
 21
67.521401273885346
  0
TEXT
  8
_0-2_
 62
    4
 10
61.588726114649695
 20
68.651401273885341
 40
1
 41
1
 50
0
  1
220Ω
  0
LINE
  8
_0-2_
  6
CONTINUOUS
 62
    1
 10
52.698726114649716
 20
67.521401273885346
 11
55.238726114649722
 21
67.521401273885346
  0
TEXT
  8
_0-2_
 62
    4
 10
52.698726114649716
 20
68.791401273885356
 40
1
 41
1
 50
0
  1
LED
  0
LINE
  8
_0-1_
  6
CONTINUOUS
 62
    7
 10
79.368726114649647
 20
62.44140127388534
 11
79.368726114649647
 21
64.981401273885353
  0
CIRCLE
  8
_0-2_
  6
CONTINUOUS
 62
    1
 10
59.04872611464971
 20
56.091401273885324
 40
8
  0
LINE
  8
_0-2_
  6
CONTINUOUS
 62
    1
 10
51.04872611464971
 20
56.091401273885324
 11
67.04872611464971
 21
56.091401273885324
  0
LINE
  8
_0-2_
  6
CONTINUOUS
 62
    1
 10
59.04872611464971
 20
57.361401273885328
 11
59.04872611464971
 21
54.821401273885321
  0
TEXT
  8
_0-2_
 62
    1
 10
52.698726114649695
 20
58.631401273885331
 40
1
 41
1
 50
0
  1
SELF EXCITED BUZZER(5V)
  0
CIRCLE
  8
_0-2_
  6
CONTINUOUS
 62
    7
 10
61.588726114649717
 20
56.091401273885324
 40
0.4
  0
CIRCLE
  8
_0-2_
  6
CONTINUOUS
 62
    7
 10
56.508726114649704
 20
56.091401273885324
 40
0.4
  0
CIRCLE
  8
_0-2_
  6
CONTINUOUS
 62
    7
 10
55.238726114649701
 20
56.091401273885324
 40
0.4
  0
CIRCLE
  8
_0-2_
  6
CONTINUOUS
 62
    7
 10
62.85872611464972
 20
56.091401273885324
 40
0.4
  0
LINE
  8
_0-2_
  6
CONTINUOUS
 62
    7
 10
61.588726114649717
 20
56.091401273885324
 11
62.85872611464972
 21
56.091401273885324
  0
LINE
  8
_0-1_
  6
CONTINUOUS
 62
    7
 10
55.238726114649722
 20
84.031401273885351
 11
55.238726114649722
 21
73.871401273885354
  0
LINE
  8
_0-1_
  6
CONTINUOUS
 62
    7
 10
69.208726114649679
 20
73.871401273885354
 11
55.238726114649722
 21
73.871401273885354
  0
LINE
  8
_0-1_
  6
CONTINUOUS
 62
    7
 10
85.218726114649641
 20
89.111401273885349
 11
50.158726114649738
 21
89.111401273885349
  0
LINE
  8
_0-2_
  6
CONTINUOUS
 62
    1
 10
50.158726114649738
 20
84.031401273885365
 11
50.158726114649738
 21
76.41140127388536
  0
LINE
  8
_0-1_
  6
CONTINUOUS
 62
    7
 10
50.158726114649738
 20
89.111401273885349
 11
50.158726114649738
 21
47.201401273885303
  0
LINE
  8
_0-1_
  6
CONTINUOUS
 62
    7
 10
50.158726114649738
 20
47.201401273885303
 11
50.158726114649738
 21
37.041401273885278
  0
LINE
  8
_0-1_
  6
CONTINUOUS
 62
    7
 10
100.95872611464958
 20
37.041401273885306
 11
50.158726114649738
 21
37.041401273885242
  0
LINE
  8
_0-1_
  6
CONTINUOUS
 62
    1
 10
48.888726114649742
 20
90.381401273885359
 11
48.888726114649742
 21
35.771401273885282
  0
LINE
  8
_0-1_
  6
CONTINUOUS
 62
    1
 10
48.888726114649742
 20
35.771401273885282
 11
114.92872611464958
 21
35.771401273885282
  0
LINE
  8
_0-1_
  6
CONTINUOUS
 62
    1
 10
48.888726114649742
 20
90.381401273885359
 11
114.92872611464958
 21
90.381401273885359
  0
LINE
  8
_0-1_
  6
CONTINUOUS
 62
    7
 10
62.85872611464972
 20
56.091401273885324
 11
62.85872611464972
 21
64.981401273885353
  0
LINE
  8
_0-1_
  6
CONTINUOUS
 62
    7
 10
56.508726114649718
 20
56.091401273885324
 11
50.158726114649738
 21
56.091401273885324
  0
CIRCLE
  8
_0-1_
  6
CONTINUOUS
 62
    7
 10
112.38872611464956
 20
33.23140127388529
 40
1.7000000000000002
  0
LINE
  8
_0-1_
  6
CONTINUOUS
 62
    1
 10
114.92872611464958
 20
90.381401273885359
 11
114.92872611464958
 21
30.691401273885297
  0
LINE
  8
_0-1_
  6
CONTINUOUS
 62
    1
 10
114.92872611464958
 20
30.691401273885297
 11
48.888726114649742
 21
30.691401273885297
  0
CIRCLE
  8
_0-1_
  6
CONTINUOUS
 62
    7
 10
51.428726114649734
 20
87.841401273885353
 40
1.7000000000000002
  0
CIRCLE
  8
_0-1_
  6
CONTINUOUS
 62
    7
 10
112.38872611464956
 20
87.841401273885353
 40
1.7000000000000002
  0
CIRCLE
  8
_0-1_
  6
CONTINUOUS
 62
    7
 10
51.428726114649734
 20
33.23140127388529
 40
1.7000000000000002
  0
CIRCLE
  8
_0-2_
  6
CONTINUOUS
 62
    7
 10
74.288726114649663
 20
43.391401273885322
 40
0.4
  0
CIRCLE
  8
_0-2_
  6
CONTINUOUS
 62
    7
 10
74.288726114649663
 20
45.931401273885314
 40
0.4
  0
CIRCLE
  8
_0-2_
  6
CONTINUOUS
 62
    7
 10
74.288726114649663
 20
48.471401273885306
 40
0.4
  0
TEXT
  8
_0-2_
 62
    1
 10
70.478726114649646
 20
47.20140127388531
 40
1
 41
1
 50
0
  1
R-78E5.0-0.5
  0
TEXT
  8
_0-2_
 62
    1
 10
70.478726114649646
 20
49.741401273885302
 40
1
 41
1
 50
0
  1
RECOM
  0
TEXT
  8
_0-2_
 62
    7
 10
73.018726114649667
 20
42.521401273885331
 40
1.5
 41
1
 50
0
  1
VIN
  0
TEXT
  8
_0-2_
 62
    7
 10
73.018726114649667
 20
45.931401273885314
 40
1.5
 41
1
 50
0
  1
GND
  0
TEXT
  8
_0-2_
 62
    7
 10
73.018726114649667
 20
48.471401273885306
 40
1.5
 41
1
 50
0
  1
VOUT
  0
LINE
  8
_0-2_
  6
CONTINUOUS
 62
    1
 10
68.738726114649666
 20
51.181401273885314
 11
68.738726114649666
 21
40.681401273885314
  0
LINE
  8
_0-2_
  6
CONTINUOUS
 62
    1
 10
76.288726114649663
 20
51.181401273885314
 11
76.288726114649663
 21
40.681401273885314
  0
LINE
  8
_0-2_
  6
CONTINUOUS
 62
    1
 10
76.288726114649663
 20
51.181401273885314
 11
68.738726114649666
 21
51.181401273885314
  0
LINE
  8
_0-2_
  6
CONTINUOUS
 62
    1
 10
76.288726114649663
 20
40.681401273885314
 11
68.738726114649666
 21
40.681401273885314
  0
LINE
  8
_0-1_
  6
CONTINUOUS
 62
    7
 10
76.828726114649655
 20
45.931401273885299
 11
71.748726114649671
 21
45.931401273885299
  0
CIRCLE
  8
_0-1_
  6
CONTINUOUS
 62
    7
 10
111.76872611464957
 20
53.451401273885317
 40
1.7000000000000002
  0
CIRCLE
  8
_0-1_
  6
CONTINUOUS
 62
    7
 10
111.76872611464957
 20
40.951401273885317
 40
1.7000000000000002
  0
LINE
  8
_0-4_
  6
CONTINUOUS
 62
    6
 10
100.95872611464958
 20
63.711401273885343
 11
100.95872611464958
 21
61.171401273885337
  0
LINE
  8
_0-4_
  6
CONTINUOUS
 62
    6
 10
95.878726114649595
 20
63.711401273885343
 11
95.878726114649595
 21
57.971401273885341
  0
LINE
  8
_0-4_
  6
CONTINUOUS
 62
    6
 10
95.878726114649595
 20
57.971401273885341
 11
108.76872611464957
 21
57.971401273885341
  0
LINE
  8
_0-4_
  6
CONTINUOUS
 62
    6
 10
100.95872611464958
 20
82.761401273885355
 11
100.95872611464958
 21
80.221401273885348
  0
LINE
  8
_0-4_
  6
CONTINUOUS
 62
    6
 10
100.95872611464958
 20
80.221401273885348
 11
107.16872611464956
 21
80.221401273885348
  0
LINE
  8
_0-4_
  6
CONTINUOUS
 62
    6
 10
100.95872611464958
 20
82.761401273885355
 11
108.76872611464957
 21
82.761401273885355
  0
LINE
  8
_0-4_
  6
CONTINUOUS
 62
    6
 10
70.478726114649675
 20
75.14140127388535
 11
56.508726114649718
 21
75.14140127388535
  0
LINE
  8
_0-4_
  6
CONTINUOUS
 62
    6
 10
56.508726114649718
 20
75.14140127388535
 11
56.508726114649718
 21
85.301401273885347
  0
LINE
  8
_0-4_
  6
CONTINUOUS
 62
    6
 10
56.508726114649718
 20
85.301401273885347
 11
53.968726114649726
 21
85.301401273885347
  0
LINE
  8
_0-4_
  6
CONTINUOUS
 62
    6
 10
70.478726114649675
 20
68.791401273885356
 11
70.478726114649675
 21
87.841401273885353
  0
LINE
  8
_0-4_
  6
CONTINUOUS
 62
    6
 10
73.018726114649667
 20
87.841401273885353
 11
73.018726114649667
 21
68.791401273885356
  0
LINE
  8
_0-1_
  6
CONTINUOUS
 62
    7
 10
67.938726114649683
 20
67.521401273885346
 11
76.828726114649655
 21
67.521401273885346
  0
CIRCLE
  8
_0-1_
  6
CONTINUOUS
 62
    7
 10
67.938726114649683
 20
67.521401273885346
 40
0.4
  0
CIRCLE
  8
_0-1_
  6
CONTINUOUS
 62
    7
 10
57.778726114649714
 20
67.521401273885346
 40
0.4
  0
CIRCLE
  8
_0-1_
  6
CONTINUOUS
 62
    7
 10
55.238726114649722
 20
67.521401273885346
 40
0.4
  0
CIRCLE
  8
_0-1_
  6
CONTINUOUS
 62
    7
 10
52.698726114649716
 20
67.521401273885346
 40
0.4
  0
LINE
  8
_0-1_
  6
CONTINUOUS
 62
    7
 10
50.158726114649738
 20
67.521401273885346
 11
52.698726114649716
 21
67.521401273885346
  0
LINE
  8
_0-1_
  6
CONTINUOUS
 62
    7
 10
55.238726114649722
 20
67.521401273885346
 11
57.778726114649714
 21
67.521401273885346
  0
LINE
  8
_0-1_
  6
CONTINUOUS
 62
    7
 10
61.588726114649717
 20
56.091401273885324
 11
62.85872611464972
 21
56.091401273885324
  0
CIRCLE
  8
_0-2_
  6
CONTINUOUS
 62
    7
 10
94.608726114649599
 20
52.281401273885315
 40
0.4
  0
CIRCLE
  8
_0-2_
  6
CONTINUOUS
 62
    7
 10
94.608726114649599
 20
37.041401273885278
 40
0.4
  0
TEXT
  8
_0-2_
 62
    4
 10
93.338726114649603
 20
44.661401273885296
 40
1
 41
1
 50
0
  1
10kΩ
  0
LINE
  8
_0-2_
  6
CONTINUOUS
 62
    1
 10
94.608726114649599
 20
52.281401273885315
 11
94.608726114649599
 21
37.041401273885278
  0
LINE
  8
_0-1_
  6
CONTINUOUS
 62
    7
 10
93.338726114649603
 20
49.741401273885309
 11
93.338726114649603
 21
39.581401273885284
  0
CIRCLE
  8
_0-1_
  6
CONTINUOUS
 62
    7
 10
86.988726114649623
 20
43.391401273885293
 40
0.4
  0
CIRCLE
  8
_0-1_
  6
CONTINUOUS
 62
    7
 10
84.448726114649631
 20
43.391401273885293
 40
0.4
  0
CIRCLE
  8
_0-1_
  6
CONTINUOUS
 62
    7
 10
81.908726114649639
 20
43.391401273885293
 40
0.4
  0
LINE
  8
_0-1_
  6
CONTINUOUS
 62
    7
 10
86.988726114649623
 20
43.391401273885293
 11
86.988726114649623
 21
45.931401273885299
  0
LINE
  8
_0-1_
  6
CONTINUOUS
 62
    7
 10
84.448726114649631
 20
43.391401273885293
 11
84.448726114649631
 21
40.851401273885287
  0
LINE
  8
_0-1_
  6
CONTINUOUS
 62
    7
 10
84.448726114649631
 20
40.851401273885287
 11
89.528726114649615
 21
40.851401273885287
  0
LINE
  8
_0-1_
  6
CONTINUOUS
 62
    7
 10
88.258726114649619
 20
49.741401273885309
 11
93.338726114649603
 21
49.741401273885309
  0
LINE
  8
_0-1_
  6
CONTINUOUS
 62
    7
 10
93.338726114649603
 20
39.581401273885284
 11
88.258726114649619
 21
39.581401273885284
  0
LINE
  8
_0-1_
  6
CONTINUOUS
 62
    7
 10
86.988726114649623
 20
45.931401273885299
 11
79.368726114649647
 21
45.931401273885299
  0
LINE
  8
_0-1_
  6
CONTINUOUS
 62
    7
 10
79.368726114649647
 20
54.821401273885321
 11
79.368726114649647
 21
43.391401273885293
  0
LINE
  8
_0-1_
  6
CONTINUOUS
 62
    7
 10
79.368726114649647
 20
43.391401273885293
 11
74.288726114649663
 21
43.391401273885293
  0
LINE
  8
_0-2_
  6
CONTINUOUS
 62
    1
 10
80.638726114649643
 20
44.661401273885296
 11
88.258726114649619
 21
44.661401273885296
  0
LINE
  8
_0-2_
  6
CONTINUOUS
 62
    1
 10
88.258726114649619
 20
44.661401273885296
 11
88.258726114649619
 21
42.12140127388529
  0
LINE
  8
_0-2_
  6
CONTINUOUS
 62
    1
 10
88.258726114649619
 20
42.12140127388529
 11
80.638726114649643
 21
42.12140127388529
  0
LINE
  8
_0-2_
  6
CONTINUOUS
 62
    1
 10
80.638726114649643
 20
42.12140127388529
 11
80.638726114649643
 21
44.661401273885296
  0
LINE
  8
_0-4_
  6
CONTINUOUS
 62
    6
 10
80.638726114649643
 20
44.661401273885296
 11
85.718726114649627
 21
44.661401273885296
  0
LINE
  8
_0-4_
  6
CONTINUOUS
 62
    6
 10
85.718726114649627
 20
44.661401273885296
 11
85.718726114649627
 21
42.12140127388529
  0
LINE
  8
_0-4_
  6
CONTINUOUS
 62
    6
 10
85.718726114649627
 20
42.12140127388529
 11
88.258726114649619
 21
42.12140127388529
  0
LINE
  8
_0-4_
  6
CONTINUOUS
 62
    6
 10
80.638726114649643
 20
47.201401273885303
 11
88.258726114649619
 21
47.201401273885303
  0
LINE
  8
_0-4_
  6
CONTINUOUS
 62
    6
 10
88.258726114649619
 20
49.741401273885309
 11
88.258726114649619
 21
42.12140127388529
  0
LINE
  8
_0-4_
  6
CONTINUOUS
 62
    6
 10
93.338726114649603
 20
39.581401273885284
 11
83.178726114649635
 21
39.581401273885284
  0
LINE
  8
_0-4_
  6
CONTINUOUS
 62
    6
 10
83.178726114649635
 20
44.661401273885296
 11
83.178726114649635
 21
39.581401273885284
  0
LINE
  8
_0-4_
  6
CONTINUOUS
 62
    6
 10
80.638726114649643
 20
44.661401273885296
 11
80.638726114649643
 21
42.12140127388529
  0
LINE
  8
_0-4_
  6
CONTINUOUS
 62
    6
 10
78.098726114649651
 20
56.091401273885324
 11
78.098726114649651
 21
44.661401273885296
  0
LINE
  8
_0-4_
  6
CONTINUOUS
 62
    6
 10
78.098726114649651
 20
44.661401273885296
 11
73.018726114649667
 21
44.661401273885296
  0
LINE
  8
_0-4_
  6
CONTINUOUS
 62
    6
 10
73.018726114649667
 20
42.12140127388529
 11
83.178726114649635
 21
42.12140127388529
  0
LINE
  8
_0-4_
  6
CONTINUOUS
 62
    6
 10
80.638726114649643
 20
56.091401273885324
 11
80.638726114649643
 21
47.201401273885303
  0
CIRCLE
  8
_0-1_
  6
CONTINUOUS
 62
    7
 10
104.76872611464957
 20
49.741401273885309
 40
0.5
  0
CIRCLE
  8
_0-1_
  6
CONTINUOUS
 62
    7
 10
94.608726114649599
 20
52.281401273885315
 40
0.4
  0
CIRCLE
  8
_0-1_
  6
CONTINUOUS
 62
    7
 10
94.608726114649599
 20
37.041401273885306
 40
0.4
  0
LINE
  8
_0-4_
  6
CONTINUOUS
 62
    6
 10
88.258726114649619
 20
49.741401273885309
 11
93.338726114649603
 21
49.741401273885309
  0
LINE
  8
_0-4_
  6
CONTINUOUS
 62
    6
 10
80.638726114649643
 20
51.011401273885312
 11
103.49872611464957
 21
51.011401273885312
  0
LINE
  8
_0-4_
  6
CONTINUOUS
 62
    6
 10
106.03872611464956
 20
48.471401273885306
 11
106.03872611464956
 21
53.551401273885318
  0
LINE
  8
_0-4_
  6
CONTINUOUS
 62
    6
 10
106.03872611464956
 20
53.551401273885318
 11
80.638726114649643
 21
53.551401273885318
  0
LINE
  8
_0-4_
  6
CONTINUOUS
 62
    6
 10
78.098726114649651
 20
56.091401273885324
 11
88.258726114649619
 21
56.091401273885324
  0
LINE
  8
_0-4_
  6
CONTINUOUS
 62
    6
 10
85.718726114649627
 20
63.711401273885343
 11
85.718726114649627
 21
58.631401273885331
  0
LINE
  8
_0-4_
  6
CONTINUOUS
 62
    6
 10
85.718726114649627
 20
58.631401273885331
 11
75.558726114649659
 21
58.631401273885331
  0
LINE
  8
_0-4_
  6
CONTINUOUS
 62
    6
 10
75.558726114649659
 20
58.631401273885331
 11
75.558726114649659
 21
47.201401273885303
  0
LINE
  8
_0-4_
  6
CONTINUOUS
 62
    6
 10
75.558726114649659
 20
47.201401273885303
 11
70.478726114649675
 21
47.201401273885303
  0
LINE
  8
_0-4_
  6
CONTINUOUS
 62
    6
 10
70.478726114649675
 20
47.201401273885303
 11
70.478726114649675
 21
38.311401273885281
  0
LINE
  8
_0-4_
  6
CONTINUOUS
 62
    6
 10
73.018726114649667
 20
38.311401273885281
 11
98.871313352043572
 21
38.311401273885281
  0
LINE
  8
_0-4_
  6
CONTINUOUS
 62
    6
 10
70.478726114649675
 20
38.311401273885281
 11
51.428726114649734
 21
38.311401273885281
  0
LINE
  8
_0-4_
  6
CONTINUOUS
 62
    6
 10
51.428726114649734
 20
54.821401273885321
 11
51.428726114649734
 21
38.311401273885281
  0
LINE
  8
_0-4_
  6
CONTINUOUS
 62
    6
 10
51.428726114649734
 20
54.821401273885321
 11
57.778726114649714
 21
54.821401273885321
  0
LINE
  8
_0-4_
  6
CONTINUOUS
 62
    6
 10
57.778726114649714
 20
57.361401273885328
 11
57.778726114649714
 21
54.821401273885321
  0
LINE
  8
_0-4_
  6
CONTINUOUS
 62
    6
 10
57.778726114649714
 20
57.361401273885328
 11
51.428726114649734
 21
57.361401273885328
  0
LINE
  8
_0-4_
  6
CONTINUOUS
 62
    6
 10
51.428726114649734
 20
66.251401273885349
 11
51.428726114649734
 21
57.361401273885328
  0
LINE
  8
_0-4_
  6
CONTINUOUS
 62
    6
 10
59.04872611464971
 20
68.791401273885356
 11
59.04872611464971
 21
66.251401273885349
  0
LINE
  8
_0-4_
  6
CONTINUOUS
 62
    6
 10
51.428726114649734
 20
66.251401273885349
 11
59.04872611464971
 21
66.251401273885349
  0
LINE
  8
_0-4_
  6
CONTINUOUS
 62
    6
 10
66.668726114649687
 20
68.791401273885356
 11
66.668726114649687
 21
66.251401273885349
  0
LINE
  8
_0-1_
  6
CONTINUOUS
 62
    7
 10
62.85872611464972
 20
64.981401273885353
 11
79.368726114649647
 21
64.981401273885353
  0
LINE
  8
_0-4_
  6
CONTINUOUS
 62
    6
 10
73.018726114649667
 20
68.791401273885356
 11
75.558726114649659
 21
68.791401273885356
  0
LINE
  8
_0-4_
  6
CONTINUOUS
 62
    6
 10
53.968726114649726
 20
87.841401273885353
 11
53.968726114649726
 21
66.251401273885349
  0
LINE
  8
_0-4_
  6
CONTINUOUS
 62
    6
 10
53.968726114649726
 20
87.841401273885353
 11
65.398726114649691
 21
87.841401273885353
  0
LINE
  8
_0-4_
  6
CONTINUOUS
 62
    6
 10
65.398726114649691
 20
87.841401273885353
 11
65.398726114649691
 21
75.14140127388535
  0
LINE
  8
_0-4_
  6
CONTINUOUS
 62
    6
 10
76.828726114649655
 20
82.761401273885355
 11
84.448726114649631
 21
82.761401273885355
  0
LINE
  8
_0-4_
  6
CONTINUOUS
 62
    6
 10
80.638726114649643
 20
87.841401273885353
 11
80.638726114649643
 21
85.301401273885347
  0
LINE
  8
_0-4_
  6
CONTINUOUS
 62
    6
 10
80.638726114649643
 20
85.301401273885347
 11
76.828726114649655
 21
85.301401273885347
  0
LINE
  8
_0-4_
  6
CONTINUOUS
 62
    6
 10
76.828726114649655
 20
85.301401273885347
 11
76.828726114649655
 21
71.331401273885348
  0
LINE
  8
_0-4_
  6
CONTINUOUS
 62
    6
 10
84.448726114649631
 20
82.761401273885355
 11
84.448726114649631
 21
76.41140127388536
  0
LINE
  8
_0-4_
  6
CONTINUOUS
 62
    6
 10
84.448726114649631
 20
76.41140127388536
 11
83.178726114649635
 21
73.871401273885354
  0
LINE
  8
_0-4_
  6
CONTINUOUS
 62
    6
 10
83.178726114649635
 20
73.871401273885354
 11
83.178726114649635
 21
68.791401273885356
  0
LINE
  8
_0-4_
  6
CONTINUOUS
 62
    6
 10
85.718726114649627
 20
73.871401273885354
 11
86.988726114649623
 21
76.41140127388536
  0
LINE
  8
_0-4_
  6
CONTINUOUS
 62
    6
 10
86.988726114649623
 20
90.381401273885359
 11
86.988726114649623
 21
76.41140127388536
  0
LINE
  8
_0-4_
  6
CONTINUOUS
 62
    6
 10
100.95872611464958
 20
71.331401273885348
 11
103.49872611464957
 21
71.331401273885348
  0
LINE
  8
_0-4_
  6
CONTINUOUS
 62
    6
 10
100.95872611464958
 20
66.251401273885349
 11
103.49872611464957
 21
66.251401273885349
  0
LINE
  8
_0-4_
  6
CONTINUOUS
 62
    6
 10
88.258726114649619
 20
68.791401273885356
 11
100.95872611464958
 21
68.791401273885356
  0
LINE
  8
_0-4_
  6
CONTINUOUS
 62
    6
 10
88.258726114649619
 20
75.14140127388535
 11
88.258726114649619
 21
68.791401273885356
  0
LINE
  8
_0-4_
  6
CONTINUOUS
 62
    6
 10
100.95872611464958
 20
75.14140127388535
 11
100.95872611464958
 21
66.251401273885349
  0
LINE
  8
_0-4_
  6
CONTINUOUS
 62
    6
 10
98.418726114649587
 20
75.14140127388535
 11
98.418726114649587
 21
68.791401273885356
  0
LINE
  8
_0-4_
  6
CONTINUOUS
 62
    6
 10
95.878726114649595
 20
75.14140127388535
 11
95.878726114649595
 21
68.791401273885356
  0
LINE
  8
_0-4_
  6
CONTINUOUS
 62
    6
 10
85.718726114649627
 20
73.871401273885354
 11
85.718726114649627
 21
68.791401273885356
  0
LINE
  8
_0-4_
  6
CONTINUOUS
 62
    6
 10
78.098726114649651
 20
68.791401273885356
 11
85.718726114649627
 21
68.791401273885356
  0
LINE
  8
_0-4_
  6
CONTINUOUS
 62
    6
 10
75.558726114649659
 20
68.791401273885356
 11
75.558726114649659
 21
71.331401273885348
  0
LINE
  8
_0-4_
  6
CONTINUOUS
 62
    6
 10
75.558726114649659
 20
71.331401273885348
 11
78.098726114649651
 21
71.331401273885348
  0
LINE
  8
_0-4_
  6
CONTINUOUS
 62
    6
 10
73.018726114649667
 20
87.841401273885353
 11
73.018726114649667
 21
68.791401273885356
  0
LINE
  8
_0-4_
  6
CONTINUOUS
 62
    6
 10
101.50031303788467
 20
76.41140127388536
 11
101.5993930095761
 21
76.41140127388536
  0
LINE
  8
_0-4_
  6
CONTINUOUS
 62
    6
 10
90.798726114649611
 20
90.381401273885359
 11
90.798726114649611
 21
68.791401273885356
  0
LINE
  8
_0-4_
  6
CONTINUOUS
 62
    6
 10
93.338726114649603
 20
82.761401273885355
 11
93.338726114649603
 21
77.211401273885357
  0
LINE
  8
_0-4_
  6
CONTINUOUS
 62
    6
 10
93.338726114649603
 20
77.211401273885357
 11
105.56872611464956
 21
77.211401273885357
  0
LINE
  8
_0-4_
  6
CONTINUOUS
 62
    6
 10
95.878726114649595
 20
78.951401273885352
 11
107.16872611464956
 21
78.951401273885352
  0
LINE
  8
_0-4_
  6
CONTINUOUS
 62
    6
 10
100.95872611464958
 20
85.301401273885347
 11
100.95872611464958
 21
78.951401273885352
  0
LINE
  8
_0-4_
  6
CONTINUOUS
 62
    6
 10
90.798726114649611
 20
82.761401273885355
 11
95.878726114649595
 21
82.761401273885355
  0
LINE
  8
_0-4_
  6
CONTINUOUS
 62
    6
 10
100.95872611464958
 20
82.761401273885355
 11
108.76872611464957
 21
82.761401273885355
  0
LINE
  8
_0-4_
  6
CONTINUOUS
 62
    6
 10
106.03872611464956
 20
87.841401273885353
 11
106.03872611464956
 21
85.301401273885347
  0
LINE
  8
_0-4_
  6
CONTINUOUS
 62
    6
 10
95.878726114649595
 20
87.841401273885353
 11
95.878726114649595
 21
78.951401273885352
  0
LINE
  8
_0-4_
  6
CONTINUOUS
 62
    6
 10
98.418726114649587
 20
87.841401273885353
 11
98.418726114649587
 21
78.951401273885352
  0
LINE
  8
_0-4_
  6
CONTINUOUS
 62
    6
 10
95.878726114649595
 20
87.841401273885353
 11
98.418726114649587
 21
87.841401273885353
  0
LINE
  8
_0-4_
  6
CONTINUOUS
 62
    6
 10
80.638726114649643
 20
82.761401273885355
 11
80.638726114649643
 21
68.791401273885356
  0
LINE
  8
_0-4_
  6
CONTINUOUS
 62
    6
 10
53.968726114649726
 20
72.601401273885358
 11
67.938726114649683
 21
72.601401273885358
  0
LINE
  8
_0-4_
  6
CONTINUOUS
 62
    6
 10
67.938726114649683
 20
72.601401273885358
 11
67.938726114649683
 21
68.791401273885356
  0
LINE
  8
_0-4_
  6
CONTINUOUS
 62
    6
 10
66.668726114649687
 20
68.791401273885356
 11
70.478726114649675
 21
68.791401273885356
  0
LINE
  8
_0-4_
  6
CONTINUOUS
 62
    6
 10
53.968726114649726
 20
68.791401273885356
 11
59.04872611464971
 21
68.791401273885356
  0
LINE
  8
_0-4_
  6
CONTINUOUS
 62
    6
 10
78.098726114649651
 20
71.331401273885348
 11
78.098726114649651
 21
66.251401273885349
  0
LINE
  8
_0-4_
  6
CONTINUOUS
 62
    6
 10
61.588726114649702
 20
66.251401273885349
 11
80.638726114649643
 21
66.251401273885349
  0
LINE
  8
_0-4_
  6
CONTINUOUS
 62
    6
 10
61.588726114649702
 20
66.251401273885349
 11
61.588726114649702
 21
57.361401273885328
  0
LINE
  8
_0-4_
  6
CONTINUOUS
 62
    6
 10
61.588726114649702
 20
57.361401273885328
 11
60.318726114649706
 21
57.361401273885328
  0
LINE
  8
_0-4_
  6
CONTINUOUS
 62
    6
 10
60.318726114649706
 20
57.361401273885328
 11
60.318726114649706
 21
54.821401273885321
  0
LINE
  8
_0-4_
  6
CONTINUOUS
 62
    6
 10
60.318726114649706
 20
54.821401273885321
 11
64.128726114649695
 21
54.821401273885321
  0
LINE
  8
_0-4_
  6
CONTINUOUS
 62
    6
 10
64.128726114649695
 20
54.821401273885321
 11
64.128726114649695
 21
63.711401273885343
  0
LINE
  8
_0-4_
  6
CONTINUOUS
 62
    6
 10
64.128726114649695
 20
63.711401273885343
 11
78.098726114649651
 21
63.711401273885343
  0
LINE
  8
_0-4_
  6
CONTINUOUS
 62
    6
 10
78.098726114649651
 20
63.711401273885343
 11
78.098726114649651
 21
61.171401273885337
  0
LINE
  8
_0-4_
  6
CONTINUOUS
 62
    6
 10
80.638726114649643
 20
66.251401273885349
 11
80.638726114649643
 21
61.171401273885337
  0
LINE
  8
_0-4_
  6
CONTINUOUS
 62
    6
 10
67.938726114649683
 20
63.711401273885343
 11
67.938726114649683
 21
61.171401273885337
  0
LINE
  8
_0-4_
  6
CONTINUOUS
 62
    6
 10
67.938726114649683
 20
61.171401273885337
 11
70.478726114649675
 21
61.171401273885337
  0
LINE
  8
_0-4_
  6
CONTINUOUS
 62
    6
 10
70.478726114649675
 20
63.711401273885343
 11
70.478726114649675
 21
51.011401273885312
  0
LINE
  8
_0-4_
  6
CONTINUOUS
 62
    6
 10
70.478726114649675
 20
51.011401273885312
 11
73.018726114649667
 21
51.011401273885312
  0
LINE
  8
_0-4_
  6
CONTINUOUS
 62
    6
 10
73.018726114649667
 20
61.171401273885337
 11
80.638726114649643
 21
61.171401273885337
  0
LINE
  8
_0-4_
  6
CONTINUOUS
 62
    6
 10
75.558726114649659
 20
63.711401273885343
 11
75.558726114649659
 21
61.171401273885337
  0
LINE
  8
_0-4_
  6
CONTINUOUS
 62
    6
 10
73.018726114649667
 20
47.201401273885303
 11
73.018726114649667
 21
63.711401273885343
  0
LINE
  8
_0-4_
  6
CONTINUOUS
 62
    6
 10
83.178726114649635
 20
63.711401273885343
 11
83.178726114649635
 21
58.631401273885331
  0
LINE
  8
_0-4_
  6
CONTINUOUS
 62
    6
 10
93.338726114649603
 20
75.14140127388535
 11
93.338726114649603
 21
66.251401273885349
  0
LINE
  8
_0-4_
  6
CONTINUOUS
 62
    6
 10
93.338726114649603
 20
66.251401273885349
 11
88.258726114649619
 21
66.251401273885349
  0
LINE
  8
_0-4_
  6
CONTINUOUS
 62
    6
 10
88.258726114649619
 20
66.251401273885349
 11
88.258726114649619
 21
56.091401273885324
  0
LINE
  8
_0-4_
  6
CONTINUOUS
 62
    6
 10
83.178726114649635
 20
63.711401273885343
 11
103.49872611464957
 21
63.711401273885343
  0
LINE
  8
_0-4_
  6
CONTINUOUS
 62
    6
 10
90.798726114649611
 20
63.711401273885343
 11
90.798726114649611
 21
53.551401273885318
  0
LINE
  8
_0-4_
  6
CONTINUOUS
 62
    6
 10
100.95872611464958
 20
61.171401273885337
 11
105.56872611464956
 21
61.171401273885337
  0
LINE
  8
_0-4_
  6
CONTINUOUS
 62
    6
 10
105.56872611464956
 20
77.211401273885357
 11
105.56872611464956
 21
61.171401273885337
  0
LINE
  8
_0-4_
  6
CONTINUOUS
 62
    6
 10
103.49872611464957
 20
63.711401273885343
 11
103.49872611464957
 21
75.14140127388535
  0
LINE
  8
_0-4_
  6
CONTINUOUS
 62
    6
 10
86.353726114649632
 20
75.14140127388535
 11
103.49872611464957
 21
75.14140127388535
  0
CIRCLE
  8
_0-1_
  6
CONTINUOUS
 62
    7
 10
56.508726114649718
 20
56.091401273885324
 40
0.4
  0
CIRCLE
  8
_0-1_
  6
CONTINUOUS
 62
    7
 10
61.588726114649702
 20
56.091401273885324
 40
0.4
  0
LINE
  8
_0-4_
  6
CONTINUOUS
 62
    6
 10
70.478726114649675
 20
87.841401273885353
 11
80.638726114649643
 21
87.841401273885353
  0
LINE
  8
_0-4_
  6
CONTINUOUS
 62
    6
 10
93.338726114649603
 20
63.711401273885343
 11
93.338726114649603
 21
56.37140127388534
  0
LINE
  8
_0-4_
  6
CONTINUOUS
 62
    6
 10
113.65872611464957
 20
86.711312781775121
 11
113.65872611464957
 21
54.771401273885346
  0
LINE
  8
_0-4_
  6
CONTINUOUS
 62
    6
 10
106.03872611464956
 20
87.841401273885353
 11
110.68872611464955
 21
87.841401273885353
  0
LINE
  8
_0-4_
  6
CONTINUOUS
 62
    6
 10
98.418726114649587
 20
85.301401273885347
 11
111.11872611464955
 21
85.301401273885347
  0
LINE
  8
_0-4_
  6
CONTINUOUS
 62
    6
 10
108.76872611464957
 20
82.761401273885355
 11
108.76872611464957
 21
57.971401273885341
  0
LINE
  8
_0-4_
  6
CONTINUOUS
 62
    6
 10
98.418726114649587
 20
59.571401273885343
 11
107.16872611464956
 21
59.571401273885343
  0
LINE
  8
_0-4_
  6
CONTINUOUS
 62
    6
 10
107.16872611464956
 20
80.221401273885348
 11
107.16872611464956
 21
59.571401273885343
  0
LINE
  8
_0-4_
  6
CONTINUOUS
 62
    6
 10
98.418726114649587
 20
63.711401273885343
 11
98.418726114649587
 21
59.571401273885343
  0
LINE
  8
_0-5_
  6
CONTINUOUS
 62
  136
 10
48.888726114649742
 20
90.381401273885359
 11
114.92872611464959
 21
90.381401273885359
  0
LINE
  8
_0-5_
  6
CONTINUOUS
 62
  136
 10
114.92872611464959
 20
90.381401273885359
 11
114.92872611464959
 21
30.691401273885297
  0
LINE
  8
_0-5_
  6
CONTINUOUS
 62
  136
 10
114.92872611464959
 20
30.691401273885297
 11
48.888726114649742
 21
30.691401273885297
  0
LINE
  8
_0-5_
  6
CONTINUOUS
 62
  136
 10
48.888726114649742
 20
30.691401273885297
 11
48.888726114649742
 21
90.381401273885359
  0
LINE
  8
_0-4_
  6
CONTINUOUS
 62
    6
 10
101.71289360755694
 20
35.771401273885282
 11
48.888726114649742
 21
35.771401273885282
  0
ARC
  8
_0-4_
  6
CONTINUOUS
 62
    6
 10
104.7944408963908
 20
44.661401273885296
 40
2.4349999999999996
 50
341.31618797459242
 51
153.70301092903776
  0
LINE
  8
_0-4_
  6
CONTINUOUS
 62
    6
 10
103.84523003994215
 20
37.36958359925849
 11
107.10111840243012
 21
43.881360324234407
  0
ARC
  8
_0-4_
  6
CONTINUOUS
 62
    6
 10
99.697323941680054
 20
47.197102360370046
 40
2.4349999999999996
 50
338.52770610410897
 51
153.434948822922
  0
LINE
  8
_0-4_
  6
CONTINUOUS
 62
    6
 10
94.409369619772576
 20
42.08751380934325
 11
97.510795904564787
 21
48.290366378927679
  0
ARC
  8
_0-4_
  6
CONTINUOUS
 62
    6
 10
94.856583215272536
 20
41.86390701159327
 40
0.5
 50
153.434948822922
 51
243.43494882292222
  0
LINE
  8
_0-4_
  6
CONTINUOUS
 62
    6
 10
98.094409646692228
 20
39.685976801508488
 11
94.632976417522556
 21
41.416693416093317
  0
LINE
  8
_0-4_
  6
CONTINUOUS
 62
    6
 10
98.765230039942168
 20
39.909583599258468
 11
101.96332200094864
 21
46.305767521271406
  0
ARC
  8
_0-4_
  6
CONTINUOUS
 62
    6
 10
98.318016444442208
 20
40.133190397008448
 40
0.5
 50
243.43494882292219
 51
333.43494882292202
  0
ARC
  8
_0-4_
  6
CONTINUOUS
 62
    6
 10
103.39801644444219
 20
37.593190397008463
 40
0.5
 50
243.43494882292205
 51
333.43494882292202
  0
LINE
  8
_0-4_
  6
CONTINUOUS
 62
    6
 10
93.338726114649603
 20
49.741401273885309
 11
93.338726114649603
 21
39.581401273885284
  0
LINE
  8
_0-4_
  6
CONTINUOUS
 62
    6
 10
103.49872611464957
 20
51.011401273885312
 11
103.49872611464957
 21
48.471401273885306
  0
LINE
  8
_0-4_
  6
CONTINUOUS
 62
    6
 10
103.49872611464957
 20
48.471401273885306
 11
106.03872611464956
 21
48.471401273885306
  0
LINE
  8
_0-4_
  6
CONTINUOUS
 62
    6
 10
102.55536526180433
 20
37.456344582380076
 11
101.71289360755694
 21
35.771401273885282
  0
LINE
  8
_0-4_
  6
CONTINUOUS
 62
    6
 10
98.871313352043572
 20
38.311401273885281
 11
102.59079590456477
 21
45.750366378927687
  0
LINE
  8
_0-4_
  6
CONTINUOUS
 62
    6
 10
102.55524142172644
 20
37.45609690222431
 11
103.17440964669221
 21
37.14597680150851
  0
CIRCLE
  8
_0-3_
  6
CONTINUOUS
 62
    1
 10
97.148726114649591
 20
86.571401273885357
 40
0.4
  0
CIRCLE
  8
_0-3_
  6
CONTINUOUS
 62
    1
 10
97.148726114649591
 20
81.491401273885344
 40
0.4
  0
CIRCLE
  8
_0-3_
  6
CONTINUOUS
 62
    1
 10
99.688726114649583
 20
84.031401273885351
 40
0.4
  0
CIRCLE
  8
_0-3_
  6
CONTINUOUS
 62
    1
 10
99.688726114649583
 20
81.491401273885344
 40
0.4
  0
CIRCLE
  8
_0-3_
  6
CONTINUOUS
 62
    1
 10
102.22872611464958
 20
81.491401273885344
 40
0.4
  0
CIRCLE
  8
_0-3_
  6
CONTINUOUS
 62
    1
 10
97.148726114649591
 20
62.44140127388534
 40
0.4
  0
CIRCLE
  8
_0-3_
  6
CONTINUOUS
 62
    1
 10
99.688726114649583
 20
62.44140127388534
 40
0.4
  0
CIRCLE
  8
_0-3_
  6
CONTINUOUS
 62
    1
 10
94.608726114649599
 20
81.491401273885344
 40
0.4
  0
CIRCLE
  8
_0-3_
  6
CONTINUOUS
 62
    1
 10
92.068726114649607
 20
81.491401273885344
 40
0.4
  0
CIRCLE
  8
_0-3_
  6
CONTINUOUS
 62
    1
 10
102.22872611464958
 20
62.44140127388534
 40
0.4
  0
CIRCLE
  8
_0-3_
  6
CONTINUOUS
 62
    1
 10
94.608726114649599
 20
62.44140127388534
 40
0.4
  0
CIRCLE
  8
_0-3_
  6
CONTINUOUS
 62
    1
 10
109.56872611464956
 20
84.031401273885351
 40
0.4
  0
CIRCLE
  8
_0-3_
  6
CONTINUOUS
 62
    1
 10
107.30872611464956
 20
86.571401273885357
 40
0.4
  0
CIRCLE
  8
_0-3_
  6
CONTINUOUS
 62
    1
 10
92.068726114649607
 20
62.44140127388534
 40
0.4
  0
CIRCLE
  8
_0-3_
  6
CONTINUOUS
 62
    1
 10
112.38872611464956
 20
87.841401273885353
 40
1.7000000000000002
  0
CIRCLE
  8
_0-3_
  6
CONTINUOUS
 62
    1
 10
51.428726114649734
 20
87.841401273885353
 40
1.7000000000000002
  0
CIRCLE
  8
_0-3_
  6
CONTINUOUS
 62
    1
 10
112.38872611464956
 20
33.23140127388529
 40
1.7000000000000002
  0
CIRCLE
  8
_0-3_
  6
CONTINUOUS
 62
    1
 10
51.428726114649734
 20
33.23140127388529
 40
1.7000000000000002
  0
CIRCLE
  8
_0-3_
  6
CONTINUOUS
 62
    1
 10
89.528726114649615
 20
86.571401273885357
 40
0.4
  0
CIRCLE
  8
_0-3_
  6
CONTINUOUS
 62
    1
 10
89.528726114649615
 20
81.491401273885344
 40
0.4
  0
CIRCLE
  8
_0-3_
  6
CONTINUOUS
 62
    1
 10
89.528726114649615
 20
73.871401273885354
 40
0.4
  0
CIRCLE
  8
_0-3_
  6
CONTINUOUS
 62
    1
 10
92.068726114649607
 20
73.871401273885354
 40
0.4
  0
CIRCLE
  8
_0-3_
  6
CONTINUOUS
 62
    1
 10
94.608726114649599
 20
73.871401273885354
 40
0.4
  0
CIRCLE
  8
_0-3_
  6
CONTINUOUS
 62
    1
 10
97.148726114649591
 20
73.871401273885354
 40
0.4
  0
CIRCLE
  8
_0-3_
  6
CONTINUOUS
 62
    1
 10
99.688726114649583
 20
73.871401273885354
 40
0.4
  0
CIRCLE
  8
_0-3_
  6
CONTINUOUS
 62
    1
 10
99.688726114649583
 20
70.061401273885352
 40
0.4
  0
CIRCLE
  8
_0-3_
  6
CONTINUOUS
 62
    1
 10
102.22872611464958
 20
70.061401273885352
 40
0.4
  0
CIRCLE
  8
_0-3_
  6
CONTINUOUS
 62
    1
 10
102.22872611464958
 20
67.521401273885346
 40
0.4
  0
CIRCLE
  8
_0-3_
  6
CONTINUOUS
 62
    1
 10
97.148726114649591
 20
70.061401273885352
 40
0.4
  0
CIRCLE
  8
_0-3_
  6
CONTINUOUS
 62
    1
 10
94.608726114649599
 20
70.061401273885352
 40
0.4
  0
CIRCLE
  8
_0-3_
  6
CONTINUOUS
 62
    1
 10
92.068726114649607
 20
70.061401273885352
 40
0.4
  0
CIRCLE
  8
_0-3_
  6
CONTINUOUS
 62
    1
 10
89.528726114649615
 20
70.061401273885352
 40
0.4
  0
CIRCLE
  8
_0-3_
  6
CONTINUOUS
 62
    1
 10
86.988726114649623
 20
70.061401273885352
 40
0.4
  0
CIRCLE
  8
_0-3_
  6
CONTINUOUS
 62
    1
 10
86.988726114649623
 20
72.601401273885358
 40
0.4
  0
CIRCLE
  8
_0-3_
  6
CONTINUOUS
 62
    1
 10
92.068726114649607
 20
67.521401273885346
 40
0.4
  0
CIRCLE
  8
_0-3_
  6
CONTINUOUS
 62
    1
 10
84.448726114649631
 20
70.061401273885352
 40
0.4
  0
CIRCLE
  8
_0-3_
  6
CONTINUOUS
 62
    1
 10
84.448726114649631
 20
72.601401273885358
 40
0.4
  0
CIRCLE
  8
_0-3_
  6
CONTINUOUS
 62
    1
 10
82.678726114649649
 20
84.031401273885393
 40
0.4
  0
CIRCLE
  8
_0-3_
  6
CONTINUOUS
 62
    1
 10
78.598726114649651
 20
84.031401273885393
 40
0.4
  0
CIRCLE
  8
_0-3_
  6
CONTINUOUS
 62
    1
 10
79.368726114649647
 20
86.571401273885357
 40
0.4
  0
CIRCLE
  8
_0-3_
  6
CONTINUOUS
 62
    1
 10
78.598726114649651
 20
78.951401273885352
 40
0.4
  0
CIRCLE
  8
_0-3_
  6
CONTINUOUS
 62
    1
 10
82.678726114649649
 20
78.951401273885381
 40
0.4
  0
CIRCLE
  8
_0-3_
  6
CONTINUOUS
 62
    1
 10
82.678726114649649
 20
76.41140127388536
 40
0.4
  0
CIRCLE
  8
_0-3_
  6
CONTINUOUS
 62
    1
 10
78.598726114649665
 20
76.41140127388536
 40
0.4
  0
CIRCLE
  8
_0-3_
  6
CONTINUOUS
 62
    1
 10
79.368726114649647
 20
70.061401273885352
 40
0.4
  0
CIRCLE
  8
_0-3_
  6
CONTINUOUS
 62
    1
 10
81.908726114649639
 20
70.061401273885352
 40
0.4
  0
CIRCLE
  8
_0-3_
  6
CONTINUOUS
 62
    1
 10
76.828726114649655
 20
70.061401273885352
 40
0.4
  0
CIRCLE
  8
_0-3_
  6
CONTINUOUS
 62
    1
 10
67.938726114649683
 20
67.521401273885346
 40
0.4
  0
CIRCLE
  8
_0-3_
  6
CONTINUOUS
 62
    1
 10
71.748726114649671
 20
70.061401273885352
 40
0.4
  0
CIRCLE
  8
_0-3_
  6
CONTINUOUS
 62
    1
 10
71.748726114649671
 20
76.41140127388536
 40
0.4
  0
CIRCLE
  8
_0-3_
  6
CONTINUOUS
 62
    1
 10
71.748726114649671
 20
84.031401273885351
 40
0.4
  0
CIRCLE
  8
_0-3_
  6
CONTINUOUS
 62
    1
 10
69.208726114649679
 20
70.061401273885352
 40
0.4
  0
CIRCLE
  8
_0-3_
  6
CONTINUOUS
 62
    1
 10
55.238726114649722
 20
76.41140127388536
 40
0.4
  0
CIRCLE
  8
_0-3_
  6
CONTINUOUS
 62
    1
 10
55.238726114649722
 20
84.031401273885351
 40
0.4
  0
CIRCLE
  8
_0-3_
  6
CONTINUOUS
 62
    1
 10
66.668726114649687
 20
84.031401273885351
 40
0.4
  0
CIRCLE
  8
_0-3_
  6
CONTINUOUS
 62
    1
 10
66.668726114649687
 20
76.41140127388536
 40
0.4
  0
CIRCLE
  8
_0-3_
  6
CONTINUOUS
 62
    1
 10
50.158726114649738
 20
84.031401273885351
 40
0.4
  0
CIRCLE
  8
_0-3_
  6
CONTINUOUS
 62
    1
 10
50.158726114649738
 20
76.41140127388536
 40
0.4
  0
CIRCLE
  8
_0-3_
  6
CONTINUOUS
 62
    1
 10
74.288726114649663
 20
70.061401273885352
 40
0.4
  0
CIRCLE
  8
_0-3_
  6
CONTINUOUS
 62
    1
 10
52.69872611464973
 20
67.521401273885346
 40
0.4
  0
CIRCLE
  8
_0-3_
  6
CONTINUOUS
 62
    1
 10
55.238726114649722
 20
67.521401273885346
 40
0.4
  0
CIRCLE
  8
_0-3_
  6
CONTINUOUS
 62
    1
 10
57.778726114649714
 20
67.521401273885346
 40
0.4
  0
CIRCLE
  8
_0-3_
  6
CONTINUOUS
 62
    1
 10
56.508726114649718
 20
56.091401273885324
 40
0.4
  0
CIRCLE
  8
_0-3_
  6
CONTINUOUS
 62
    1
 10
61.588726114649702
 20
56.091401273885324
 40
0.4
  0
CIRCLE
  8
_0-3_
  6
CONTINUOUS
 62
    1
 10
69.208726114649679
 20
62.44140127388534
 40
0.4
  0
CIRCLE
  8
_0-3_
  6
CONTINUOUS
 62
    1
 10
71.748726114649671
 20
62.44140127388534
 40
0.4
  0
CIRCLE
  8
_0-3_
  6
CONTINUOUS
 62
    1
 10
71.748726114649671
 20
52.281401273885315
 40
0.4
  0
CIRCLE
  8
_0-3_
  6
CONTINUOUS
 62
    1
 10
81.908726114649639
 20
52.281401273885315
 40
0.4
  0
CIRCLE
  8
_0-3_
  6
CONTINUOUS
 62
    1
 10
79.368726114649647
 20
54.821401273885321
 40
0.4
  0
CIRCLE
  8
_0-3_
  6
CONTINUOUS
 62
    1
 10
79.368726114649647
 20
57.361401273885328
 40
0.4
  0
CIRCLE
  8
_0-3_
  6
CONTINUOUS
 62
    1
 10
74.288726114649663
 20
62.44140127388534
 40
0.4
  0
CIRCLE
  8
_0-3_
  6
CONTINUOUS
 62
    1
 10
76.828726114649655
 20
62.44140127388534
 40
0.4
  0
CIRCLE
  8
_0-3_
  6
CONTINUOUS
 62
    1
 10
79.368726114649647
 20
62.44140127388534
 40
0.4
  0
CIRCLE
  8
_0-3_
  6
CONTINUOUS
 62
    1
 10
81.908726114649639
 20
62.44140127388534
 40
0.4
  0
CIRCLE
  8
_0-3_
  6
CONTINUOUS
 62
    1
 10
74.288726114649663
 20
48.471401273885306
 40
0.4
  0
CIRCLE
  8
_0-3_
  6
CONTINUOUS
 62
    1
 10
84.448726114649631
 20
62.44140127388534
 40
0.4
  0
CIRCLE
  8
_0-3_
  6
CONTINUOUS
 62
    1
 10
84.448726114649631
 20
59.901401273885334
 40
0.4
  0
CIRCLE
  8
_0-3_
  6
CONTINUOUS
 62
    1
 10
86.988726114649623
 20
62.44140127388534
 40
0.4
  0
CIRCLE
  8
_0-3_
  6
CONTINUOUS
 62
    1
 10
86.988726114649623
 20
59.901401273885334
 40
0.4
  0
CIRCLE
  8
_0-3_
  6
CONTINUOUS
 62
    1
 10
89.528726114649615
 20
62.44140127388534
 40
0.4
  0
CIRCLE
  8
_0-3_
  6
CONTINUOUS
 62
    1
 10
89.528726114649615
 20
57.361401273885328
 40
0.4
  0
CIRCLE
  8
_0-3_
  6
CONTINUOUS
 62
    1
 10
89.528726114649615
 20
54.821401273885321
 40
0.4
  0
CIRCLE
  8
_0-3_
  6
CONTINUOUS
 62
    1
 10
94.608726114649599
 20
52.281401273885315
 40
0.4
  0
CIRCLE
  8
_0-3_
  6
CONTINUOUS
 62
    1
 10
104.76872611464957
 20
49.741401273885309
 40
0.5
  0
CIRCLE
  8
_0-3_
  6
CONTINUOUS
 62
    1
 10
74.288726114649663
 20
45.931401273885299
 40
0.4
  0
CIRCLE
  8
_0-3_
  6
CONTINUOUS
 62
    1
 10
74.288726114649663
 20
43.391401273885293
 40
0.4
  0
CIRCLE
  8
_0-3_
  6
CONTINUOUS
 62
    1
 10
81.908726114649639
 20
43.391401273885293
 40
0.4
  0
CIRCLE
  8
_0-3_
  6
CONTINUOUS
 62
    1
 10
84.448726114649631
 20
43.391401273885293
 40
0.4
  0
CIRCLE
  8
_0-3_
  6
CONTINUOUS
 62
    1
 10
86.988726114649623
 20
43.391401273885293
 40
0.4
  0
CIRCLE
  8
_0-3_
  6
CONTINUOUS
 62
    1
 10
94.608726114649599
 20
37.041401273885306
 40
0.4
  0
CIRCLE
  8
_0-3_
  6
CONTINUOUS
 62
    1
 10
99.688726114649583
 20
47.201401273885303
 40
0.5
  0
CIRCLE
  8
_0-3_
  6
CONTINUOUS
 62
    1
 10
104.76872611464957
 20
44.661401273885296
 40
0.5
  0
CIRCLE
  8
_0-3_
  6
CONTINUOUS
 62
    1
 10
111.76872611464957
 20
53.451401273885317
 40
0.8
  0
CIRCLE
  8
_0-3_
  6
CONTINUOUS
 62
    1
 10
111.76872611464957
 20
40.951401273885317
 40
0.8
  0
TEXT
  8
_0-2_
 62
    4
 10
84.448726114649631
 20
72.601401273885358
 40
1
 41
1
 50
0
  1
0.1uf
  0
LINE
  8
_0-2_
  6
CONTINUOUS
 62
    1
 10
79.368726114649647
 20
57.361401273885328
 11
89.528726114649615
 21
57.361401273885328
  0
CIRCLE
  8
_0-3_
  6
CONTINUOUS
 62
    1
 10
90.798726114649611
 20
33.23140127388529
 40
1.5
  0
CIRCLE
  8
_0-3_
  6
CONTINUOUS
 62
    1
 10
102.22872611464958
 20
33.23140127388529
 40
1.5
  0
CIRCLE
  8
_0-4_
  6
CONTINUOUS
 62
    6
 10
111.76872611464957
 20
40.951401273885317
 40
2.1000000000000001
  0
LINE
  8
_0-4_
  6
CONTINUOUS
 62
    6
 10
90.798726114649611
 20
54.771401273885346
 11
110.13544720399165
 21
54.771401273885346
  0
LINE
  8
_0-4_
  6
CONTINUOUS
 62
    6
 10
113.40200502530749
 20
54.771401273885346
 11
113.65872611464957
 21
54.771401273885346
  0
LINE
  8
_0-4_
  6
CONTINUOUS
 62
    6
 10
111.11872611464955
 20
57.571401273885343
 11
109.91872611464956
 21
56.37140127388534
  0
LINE
  8
_0-4_
  6
CONTINUOUS
 62
    6
 10
111.11872611464955
 20
85.301401273885347
 11
111.11872611464955
 21
57.571401273885343
  0
LINE
  8
_0-4_
  6
CONTINUOUS
 62
    6
 10
93.338726114649603
 20
56.37140127388534
 11
109.91872611464956
 21
56.37140127388534
  0
LINE
  8
_0-4_
  6
CONTINUOUS
 62
    6
 10
73.018726114649667
 20
44.661401273885296
 11
73.018726114649667
 21
38.311401273885281
  0
LINE
  8
_0-2_
  6
CONTINUOUS
 62
    4
 10
48.888726114649742
 20
95.684418494928053
 11
114.92872611464959
 21
95.684418494928053
  0
POINT
  8
_0-2_
 62
    4
 10
48.888726114649742
 20
95.684418494928053
  0
POINT
  8
_0-2_
 62
    4
 10
114.92872611464959
 20
95.684418494928053
  0
TEXT
  8
_0-2_
 62
    4
 10
81.283726114649667
 20
95.934418494928053
 40
1.25
 41
1
 50
0
  1
66
  0
LINE
  8
_0-2_
  6
CONTINUOUS
 62
    4
 10
51.428726114649734
 20
93.009259259259267
 11
112.38872611464956
 21
93.009259259259267
  0
POINT
  8
_0-2_
 62
    4
 10
51.428726114649734
 20
93.009259259259267
  0
POINT
  8
_0-2_
 62
    4
 10
112.38872611464956
 20
93.009259259259267
  0
TEXT
  8
_0-2_
 62
    4
 10
80.346226114649653
 20
93.259259259259267
 40
1.25
 41
1
 50
0
  1
60.96
  0
LINE
  8
_0-2_
  6
CONTINUOUS
 62
    7
 10
51.428726114649734
 20
87.841401273885353
 11
51.428726114649734
 21
93.009259259259267
  0
LINE
  8
_0-2_
  6
CONTINUOUS
 62
    7
 10
112.38872611464956
 20
87.841401273885353
 11
112.38872611464956
 21
93.009259259259267
  0
LINE
  8
_0-2_
  6
CONTINUOUS
 62
    4
 10
39.435774946921406
 20
90.381401062011719
 11
39.435774946921399
 21
30.691401273885297
  0
POINT
  8
_0-2_
 62
    4
 10
39.435774946921406
 20
90.381401062011719
  0
POINT
  8
_0-2_
 62
    4
 10
39.435774946921399
 20
30.691401273885297
  0
TEXT
  8
_0-2_
 62
    4
 10
39.185774946921399
 20
58.973901167948512
 40
1.25
 41
1
 50
90
  1
59.69
  0
LINE
  8
_0-2_
  6
CONTINUOUS
 62
    4
 10
44.544585987261115
 20
87.841401273885353
 11
44.544585987261108
 21
33.23140127388529
  0
POINT
  8
_0-2_
 62
    4
 10
44.544585987261115
 20
87.841401273885353
  0
POINT
  8
_0-2_
 62
    4
 10
44.544585987261108
 20
33.23140127388529
  0
TEXT
  8
_0-2_
 62
    4
 10
44.294585987261108
 20
58.973901273885318
 40
1.25
 41
1
 50
90
  1
54.61
  0
LINE
  8
_0-2_
  6
CONTINUOUS
 62
    7
 10
51.428726114649734
 20
87.841401273885353
 11
44.544585987261115
 21
87.841401273885353
  0
LINE
  8
_0-2_
  6
CONTINUOUS
 62
    7
 10
51.428726114649734
 20
33.23140127388529
 11
44.544585987261108
 21
33.23140127388529
  0
TEXT
  8
_0-2_
 62
    4
 10
-5.2984194385468868
 20
80.026966855390441
 40
1
 41
1
 50
0
  1
CARBON REGISTER（カーボン抵抗）(1/8W) 150Ω×３
  0
TEXT
  8
_0-2_
 62
    4
 10
-5.2984194385468868
 20
78.026966855390441
 40
1
 41
1
 50
0
  1
CARBON REGISTER（カーボン抵抗）(1/8W) 10KΩ×２
  0
TEXT
  8
_0-2_
 62
    4
 10
-5.2984194385468868
 20
79.026966855390441
 40
1
 41
1
 50
0
  1
CARBON REGISTER（カーボン抵抗）(1/8W) 220Ω×１
  0
TEXT
  8
_0-2_
 62
    4
 10
-5.2984194385468868
 20
77.026966855390441
 40
1
 41
1
 50
0
  1
CARBON REGISTER（カーボン抵抗）(1/8W)  47Ω×１
  0
TEXT
  8
_0-2_
 62
    4
 10
-5.2984194385468868
 20
76.026966855390441
 40
1
 41
1
 50
0
  1
METAL FILM REGISTER（金属皮膜抵抗）(1/8W) 15KΩ×１
  0
TEXT
  8
_0-2_
 62
    4
 10
-5.2984194385468868
 20
75.026966855390441
 40
1
 41
1
 50
0
  1
METAL FILM REGISTER（金属皮膜抵抗）(1/8W) 68KΩ×１
  0
TEXT
  8
_0-2_
 62
    4
 10
-5.2984194385468868
 20
74.026966855390441
 40
1
 41
1
 50
0
  1
CERAMIC CAPACITOR（積層セラミックコンデンサ）0.1uf×２
  0
TEXT
  8
_0-2_
 62
    4
 10
-5.2984194385468868
 20
73.026966855390441
 40
1
 41
1
 50
0
  1
CERAMIC CAPACITOR（積層セラミックコンデンサ）22pf×２
  0
TEXT
  8
_0-2_
 62
    4
 10
-5.2984194385468868
 20
66.026966855390441
 40
1
 41
1
 50
0
  1
FET用絶縁シート×１
  0
TEXT
  8
_0-2_
 62
    4
 10
-5.2984194385468868
 20
68.026966855390441
 40
1
 41
1
 50
0
  1
Nch MOSFET TOSHIBA TK100E06N1×１ 秋月 160円×１
  0
TEXT
  8
_0-2_
 62
    4
 10
-5.2984194385468868
 20
67.026966855390441
 40
1
 41
1
 50
0
  1
HEATSINK(ヒートシンク)20PB020×１ 秋月50円×１
  0
TEXT
  8
_0-2_
 62
    4
 10
-5.2984194385468868
 20
65.026966855390441
 40
1
 41
1
 50
0
  1
TACT SWITCH(タクトスイッチ）×２ 秋月10円×２
  0
TEXT
  8
_0-2_
 62
    4
 10
-5.2984194385468868
 20
64.026966855390441
 40
1
 41
1
 50
0
  1
1P2TSLIDE SWITCH(１回路２接点スライドスイッチ）SS-12D00-G5 ×１ 秋月20円×１
  0
TEXT
  8
_0-2_
 62
    4
 10
-5.2984194385468868
 20
69.026966855390441
 40
1
 41
1
 50
0
  1
5VDCDC SWITCHING REGURATOR(5Vスイッチングレギュレーター)R-78E5.0-0.5×１　秋月350円×１
  0
TEXT
  8
_0-2_
 62
    4
 10
-5.2984194385468868
 20
70.026966855390441
 40
1
 41
1
 50
0
  1
SELF EXCITED BUZZER（自己発振型ブザー）5V　UDB-05LFPN×１ 秋月　80円×１
  0
TEXT
  8
_0-2_
 62
    4
 10
-5.2984194385468868
 20
63.026966855390441
 40
1
 41
1
 50
0
  1
ATMEGA328PーPU　秋月230円×１ 
  0
TEXT
  8
_0-2_
 62
    4
 10
-5.2984194385468868
 20
72.026966855390441
 40
1
 41
1
 50
0
  1
16MHz CRYSTAL(クリスタル)×１　秋月30円×１
  0
TEXT
  8
_0-2_
 62
    4
 10
-5.2984194385468868
 20
71.026966855390441
 40
1
 41
1
 50
0
  1
LED×１　ＯＳＲ５ＪＡ３Ｚ７４Ａ　秋月10円×１
  0
LINE
  8
_0-1_
  6
CONTINUOUS
 62
    7
 10
89.528726114649615
 20
48.471401273885306
 11
89.528726114649615
 21
40.851401273885287
  0
LINE
  8
_0-1_
  6
CONTINUOUS
 62
    7
 10
89.528726114649615
 20
48.471401273885306
 11
92.068726114649607
 21
48.471401273885306
  0
LINE
  8
_0-1_
  6
CONTINUOUS
 62
    7
 10
92.068726114649607
 20
48.471401273885306
 11
92.068726114649607
 21
40.851401273885287
  0
LINE
  8
_0-1_
  6
CONTINUOUS
 62
    7
 10
89.528726114649615
 20
40.851401273885287
 11
92.068726114649607
 21
40.851401273885287
  0
LINE
  8
_0-2_
  6
CONTINUOUS
 62
    1
 10
88.258726114649619
 20
82.761401273885355
 11
103.49872611464957
 21
82.761401273885355
  0
LINE
  8
_0-2_
  6
CONTINUOUS
 62
    1
 10
103.49872611464957
 20
82.761401273885355
 11
103.49872611464957
 21
72.601401273885358
  0
LINE
  8
_0-2_
  6
CONTINUOUS
 62
    1
 10
103.49872611464957
 20
72.601401273885358
 11
88.258726114649619
 21
72.601401273885358
  0
LINE
  8
_0-2_
  6
CONTINUOUS
 62
    1
 10
88.258726114649619
 20
72.601401273885358
 11
88.258726114649619
 21
82.761401273885355
  0
TEXT
  8
_0-2_
 62
    4
 10
90.798726114649611
 20
76.41140127388536
 40
1
 41
1
 50
0
  1
７SEGMENT LED
  0
TEXT
  8
_0-2_
 62
    4
 10
80.678726114649635
 20
43.391401273885293
 40
1
 41
1
 50
0
  1
1P2TSWITCH
  0
TEXT
  8
_0-2_
 62
    4
 10
-5.2984194385468868
 20
62.026966855390448
 40
1
 41
1
 50
0
  1
7SEG LED(3DIGIT) 2381BB×１ 秋月 120円×１
  0
TEXT
  8
_0-2_
 62
    4
 10
-5.2984194385468868
 20
61.026966855390441
 40
1
 41
1
 50
0
  1
その他 XT60コネクタ・シリコンワイヤー　FET断熱シート等
  0
ENDSEC
  0
EOF
